<svg width="414" height="390" viewBox="0 0 414 390" fill="none" xmlns="http://www.w3.org/2000/svg">
<g clip-path="url(#clip0_586_1708)">
<path d="M19.8344 37.3232C20.0947 37.5838 20.4477 37.7304 20.816 37.731C21.567 37.731 22.203 37.093 22.203 36.34V11.37C22.203 11.0017 22.0568 10.6484 21.7966 10.3878C21.5363 10.1272 21.1833 9.98051 20.815 9.97998C20.035 9.97998 19.428 10.617 19.428 11.37V36.341C19.428 36.7093 19.5742 37.0625 19.8344 37.3232Z" fill="#B7B7B7"/>
<path d="M8.383 25.247H15.033L15.034 25.246C15.4027 25.246 15.7562 25.0995 16.0169 24.8389C16.2776 24.5782 16.424 24.2246 16.424 23.856C16.424 23.4873 16.2776 23.1338 16.0169 22.8731C15.7562 22.6124 15.4027 22.466 15.034 22.466H8.384C7.603 22.466 6.996 23.074 6.996 23.857C6.996 24.2251 7.14204 24.5782 7.40206 24.8388C7.66209 25.0994 8.01487 25.2462 8.383 25.247Z" fill="#B7B7B7"/>
<path d="M26.598 25.247H33.276C34.028 25.247 34.635 24.638 34.635 23.856C34.635 23.4879 34.489 23.1348 34.2289 22.8742C33.9689 22.6136 33.6161 22.4668 33.248 22.466H26.598C25.817 22.466 25.21 23.074 25.21 23.857C25.21 24.2253 25.3562 24.5785 25.6164 24.8392C25.8767 25.0998 26.2297 25.2465 26.598 25.247Z" fill="#B7B7B7"/>
<path fill-rule="evenodd" clip-rule="evenodd" d="M0 23.856C0 35.356 9.338 44.712 20.816 44.712C32.294 44.712 41.632 35.356 41.632 23.856C41.632 12.356 32.294 3 20.816 3C9.338 3 0 12.356 0 23.856ZM2.776 23.856C2.776 13.891 10.871 5.781 20.816 5.781C30.762 5.781 38.856 13.891 38.856 23.856C38.856 33.821 30.762 41.931 20.816 41.931C10.871 41.931 2.776 33.821 2.776 23.856Z" fill="#B7B7B7"/>
<path d="M55.423 15.687V18.178H59.47V32.053H62.304V18.178H66.38V15.687H55.423Z" fill="#B7B7B7"/>
<path d="M72.191 22.639C72.6369 22.6382 73.082 22.677 73.521 22.755V20.235L73.5019 20.2331C73.2192 20.2047 72.9335 20.176 72.51 20.176C70.977 20.176 69.82 21.191 69.3 22.176H69.242V20.554H66.611V32.024H69.301V26.231C69.301 23.827 70.37 22.639 72.191 22.639Z" fill="#B7B7B7"/>
<path fill-rule="evenodd" clip-rule="evenodd" d="M86.416 32.024V20.553H83.814V22.117H83.756C83.062 21.219 81.905 20.206 79.997 20.206C76.875 20.206 74.302 22.639 74.302 26.289C74.302 30.402 77.222 32.459 79.795 32.459C81.703 32.459 82.947 31.561 83.727 30.576H83.785V32.024H86.416ZM83.9 26.346C83.9 28.548 82.252 30.084 80.489 30.084C78.118 30.084 77.019 28.2 77.019 26.289C77.019 24.406 78.147 22.494 80.518 22.494C82.397 22.494 83.9 24.029 83.9 26.346Z" fill="#B7B7B7"/>
<path d="M92.17 20.553H89.51L89.509 32.053H92.198V25.97C92.198 23.74 93.354 22.552 95.031 22.552C96.564 22.552 97.488 23.594 97.488 25.564V32.024H100.178V25.42C100.178 21.741 98.096 20.177 95.725 20.177C94.453 20.177 93.123 20.698 92.227 22.002H92.17V20.553Z" fill="#B7B7B7"/>
<path d="M106.769 22.118C107.55 22.118 108.186 22.668 108.302 23.508L110.73 23.507C110.441 21.625 109.14 20.177 106.682 20.177C104.254 20.177 102.779 21.567 102.779 23.45C102.779 25.246 103.878 26.318 106.018 27.013C107.926 27.65 108.417 28.201 108.417 29.069C108.417 29.852 107.839 30.489 106.827 30.489C105.642 30.489 105.063 29.765 104.948 28.809H102.461C102.664 30.952 104.023 32.459 106.769 32.459C109.4 32.459 110.99 30.981 110.99 28.867C110.99 27.245 110.123 25.97 107.665 25.188C105.671 24.522 105.324 24.029 105.324 23.334C105.324 22.697 105.844 22.118 106.769 22.118Z" fill="#B7B7B7"/>
<path d="M116.31 15.281H113.332V18.004H116.31V15.281Z" fill="#B7B7B7"/>
<path d="M116.165 20.553H113.477V32.053H116.165V20.553Z" fill="#B7B7B7"/>
<path d="M122.93 22.118C123.711 22.118 124.347 22.668 124.463 23.508L126.891 23.507C126.602 21.625 125.301 20.177 122.844 20.177C120.415 20.177 118.941 21.567 118.941 23.45C118.941 25.246 120.039 26.318 122.179 27.013C124.087 27.65 124.578 28.201 124.578 29.069C124.578 29.852 124 30.489 122.988 30.489C121.803 30.489 121.225 29.765 121.109 28.809H118.623C118.825 30.952 120.184 32.459 122.93 32.459C125.561 32.459 127.151 30.981 127.151 28.867C127.151 27.245 126.284 25.97 123.827 25.188C121.832 24.522 121.485 24.029 121.485 23.334C121.485 22.697 122.005 22.118 122.93 22.118Z" fill="#B7B7B7"/>
<path d="M129.753 20.553H128.308V22.813H129.753V28.085C129.753 30.431 130.505 32.169 133.367 32.169C134.032 32.169 134.784 32.082 135.391 31.908V29.736C134.986 29.852 134.466 29.939 134.003 29.939C132.905 29.939 132.413 29.504 132.413 27.94V22.813H135.304V20.553H132.442V16.875H129.753V20.553Z" fill="#B7B7B7"/>
<path fill-rule="evenodd" clip-rule="evenodd" d="M148.748 26.289C148.748 22.813 146.204 20.177 142.619 20.177C139.15 20.177 136.49 22.726 136.49 26.289C136.49 29.765 139.121 32.459 142.619 32.459C146.175 32.459 148.748 29.678 148.748 26.289ZM146.03 26.289C146.03 28.432 144.643 30.054 142.619 30.054C140.769 30.054 139.207 28.49 139.207 26.289C139.207 24.145 140.566 22.552 142.619 22.552C144.729 22.552 146.03 24.261 146.03 26.289Z" fill="#B7B7B7"/>
<path d="M153.78 26.231C153.78 23.827 154.849 22.639 156.671 22.639C157.117 22.6382 157.562 22.677 158.001 22.755V20.235L157.98 20.2329C157.697 20.2045 157.412 20.176 156.989 20.176C155.456 20.176 154.3 21.191 153.78 22.176H153.722V20.554H151.091V32.024H153.78V26.231Z" fill="#B7B7B7"/>
</g>
<g clip-path="url(#clip1_586_1708)">
<path d="M19.8344 379.323C20.0947 379.584 20.4477 379.73 20.816 379.731C21.567 379.731 22.203 379.093 22.203 378.34V353.37C22.203 353.002 22.0568 352.648 21.7966 352.388C21.5363 352.127 21.1833 351.981 20.815 351.98C20.035 351.98 19.428 352.617 19.428 353.37V378.341C19.428 378.709 19.5742 379.063 19.8344 379.323Z" fill="#B7B7B7"/>
<path d="M8.383 367.247H15.033L15.034 367.246C15.4027 367.246 15.7562 367.1 16.0169 366.839C16.2776 366.578 16.424 366.225 16.424 365.856C16.424 365.487 16.2776 365.134 16.0169 364.873C15.7562 364.612 15.4027 364.466 15.034 364.466H8.384C7.603 364.466 6.996 365.074 6.996 365.857C6.996 366.225 7.14204 366.578 7.40206 366.839C7.66209 367.099 8.01487 367.246 8.383 367.247Z" fill="#B7B7B7"/>
<path d="M26.598 367.247H33.276C34.028 367.247 34.635 366.638 34.635 365.856C34.635 365.488 34.489 365.135 34.2289 364.874C33.9689 364.614 33.6161 364.467 33.248 364.466H26.598C25.817 364.466 25.21 365.074 25.21 365.857C25.21 366.225 25.3562 366.579 25.6164 366.839C25.8767 367.1 26.2297 367.246 26.598 367.247Z" fill="#B7B7B7"/>
<path fill-rule="evenodd" clip-rule="evenodd" d="M0 365.856C0 377.356 9.338 386.712 20.816 386.712C32.294 386.712 41.632 377.356 41.632 365.856C41.632 354.356 32.294 345 20.816 345C9.338 345 0 354.356 0 365.856ZM2.776 365.856C2.776 355.891 10.871 347.781 20.816 347.781C30.762 347.781 38.856 355.891 38.856 365.856C38.856 375.821 30.762 383.931 20.816 383.931C10.871 383.931 2.776 375.821 2.776 365.856Z" fill="#B7B7B7"/>
<path d="M55.423 357.687V360.178H59.47V374.053H62.304V360.178H66.38V357.687H55.423Z" fill="#B7B7B7"/>
<path d="M72.191 364.639C72.6369 364.638 73.082 364.677 73.521 364.755V362.235L73.5019 362.233C73.2192 362.205 72.9335 362.176 72.51 362.176C70.977 362.176 69.82 363.191 69.3 364.176H69.242V362.554H66.611V374.024H69.301V368.231C69.301 365.827 70.37 364.639 72.191 364.639Z" fill="#B7B7B7"/>
<path fill-rule="evenodd" clip-rule="evenodd" d="M86.416 374.024V362.553H83.814V364.117H83.756C83.062 363.219 81.905 362.206 79.997 362.206C76.875 362.206 74.302 364.639 74.302 368.289C74.302 372.402 77.222 374.459 79.795 374.459C81.703 374.459 82.947 373.561 83.727 372.576H83.785V374.024H86.416ZM83.9 368.346C83.9 370.548 82.252 372.084 80.489 372.084C78.118 372.084 77.019 370.2 77.019 368.289C77.019 366.406 78.147 364.494 80.518 364.494C82.397 364.494 83.9 366.029 83.9 368.346Z" fill="#B7B7B7"/>
<path d="M92.17 362.553H89.51L89.509 374.053H92.198V367.97C92.198 365.74 93.354 364.552 95.031 364.552C96.564 364.552 97.488 365.594 97.488 367.564V374.024H100.178V367.42C100.178 363.741 98.096 362.177 95.725 362.177C94.453 362.177 93.123 362.698 92.227 364.002H92.17V362.553Z" fill="#B7B7B7"/>
<path d="M106.769 364.118C107.55 364.118 108.186 364.668 108.302 365.508L110.73 365.507C110.441 363.625 109.14 362.177 106.682 362.177C104.254 362.177 102.779 363.567 102.779 365.45C102.779 367.246 103.878 368.318 106.018 369.013C107.926 369.65 108.417 370.201 108.417 371.069C108.417 371.852 107.839 372.489 106.827 372.489C105.642 372.489 105.063 371.765 104.948 370.809H102.461C102.664 372.952 104.023 374.459 106.769 374.459C109.4 374.459 110.99 372.981 110.99 370.867C110.99 369.245 110.123 367.97 107.665 367.188C105.671 366.522 105.324 366.029 105.324 365.334C105.324 364.697 105.844 364.118 106.769 364.118Z" fill="#B7B7B7"/>
<path d="M116.31 357.281H113.332V360.004H116.31V357.281Z" fill="#B7B7B7"/>
<path d="M116.165 362.553H113.477V374.053H116.165V362.553Z" fill="#B7B7B7"/>
<path d="M122.93 364.118C123.711 364.118 124.347 364.668 124.463 365.508L126.891 365.507C126.602 363.625 125.301 362.177 122.844 362.177C120.415 362.177 118.941 363.567 118.941 365.45C118.941 367.246 120.039 368.318 122.179 369.013C124.087 369.65 124.578 370.201 124.578 371.069C124.578 371.852 124 372.489 122.988 372.489C121.803 372.489 121.225 371.765 121.109 370.809H118.623C118.825 372.952 120.184 374.459 122.93 374.459C125.561 374.459 127.151 372.981 127.151 370.867C127.151 369.245 126.284 367.97 123.827 367.188C121.832 366.522 121.485 366.029 121.485 365.334C121.485 364.697 122.005 364.118 122.93 364.118Z" fill="#B7B7B7"/>
<path d="M129.753 362.553H128.308V364.813H129.753V370.085C129.753 372.431 130.505 374.169 133.367 374.169C134.032 374.169 134.784 374.082 135.391 373.908V371.736C134.986 371.852 134.466 371.939 134.003 371.939C132.905 371.939 132.413 371.504 132.413 369.94V364.813H135.304V362.553H132.442V358.875H129.753V362.553Z" fill="#B7B7B7"/>
<path fill-rule="evenodd" clip-rule="evenodd" d="M148.748 368.289C148.748 364.813 146.204 362.177 142.619 362.177C139.15 362.177 136.49 364.726 136.49 368.289C136.49 371.765 139.121 374.459 142.619 374.459C146.175 374.459 148.748 371.678 148.748 368.289ZM146.03 368.289C146.03 370.432 144.643 372.054 142.619 372.054C140.769 372.054 139.207 370.49 139.207 368.289C139.207 366.145 140.566 364.552 142.619 364.552C144.729 364.552 146.03 366.261 146.03 368.289Z" fill="#B7B7B7"/>
<path d="M153.78 368.231C153.78 365.827 154.849 364.639 156.671 364.639C157.117 364.638 157.562 364.677 158.001 364.755V362.235L157.98 362.233C157.697 362.205 157.412 362.176 156.989 362.176C155.456 362.176 154.3 363.191 153.78 364.176H153.722V362.554H151.091V374.024H153.78V368.231Z" fill="#B7B7B7"/>
</g>
<g clip-path="url(#clip2_586_1708)">
<path fill-rule="evenodd" clip-rule="evenodd" d="M305.029 12.273C305.029 8.25617 301.8 5.00027 297.816 5C293.833 5.00027 290.603 8.25617 290.603 12.273C290.6 14.1603 291.329 15.9752 292.638 17.335L290.788 20.144L284.84 10.955C284.736 10.7948 284.593 10.6641 284.423 10.5757C284.254 10.4873 284.065 10.4442 283.874 10.4505C283.683 10.4569 283.497 10.5125 283.334 10.6119C283.171 10.7113 283.037 10.8512 282.944 11.018L272.591 29.58H268.611C267.998 29.58 267.501 30.08 267.501 30.698C267.501 31.316 267.998 31.816 268.61 31.816H305.406C305.417 31.8162 305.429 31.8162 305.44 31.816H310.052C310.665 31.816 311.162 31.316 311.162 30.698C311.162 30.08 310.665 29.58 310.052 29.58H306.072L300.258 19.118C301.66 18.6046 302.869 17.6724 303.723 16.4478C304.576 15.2232 305.032 13.7657 305.029 12.273ZM296.895 29.58L292.107 22.183L296.072 16.162L303.529 29.58H296.895ZM283.98 13.72L294.247 29.58H275.135L283.98 13.72ZM301.917 15.3861C302.59 14.4878 302.952 13.3951 302.949 12.273C302.949 9.414 300.651 7.097 297.816 7.097C294.981 7.097 292.682 9.414 292.682 12.273C292.68 13.4575 293.083 14.6071 293.826 15.53L295.228 13.4C295.333 13.2411 295.477 13.1119 295.646 13.0249C295.815 12.9379 296.004 12.8959 296.194 12.9032C296.384 12.9104 296.57 12.9666 296.732 13.0662C296.894 13.1658 297.028 13.3056 297.12 13.472L299.221 17.253C300.299 16.9397 301.245 16.2845 301.917 15.3861Z" fill="#B7B7B7"/>
<path d="M276.013 36.29C276.013 35.673 276.509 35.173 277.12 35.173H301.541C302.152 35.173 302.648 35.673 302.648 36.29C302.648 36.906 302.152 37.406 301.54 37.406H277.12C276.509 37.406 276.013 36.907 276.013 36.29Z" fill="#B7B7B7"/>
<path d="M284.523 41.882C284.523 41.264 285.02 40.763 285.633 40.763H293.028C293.641 40.763 294.138 41.264 294.138 41.882C294.138 42.5 293.641 43 293.029 43H285.633C285.02 43 284.523 42.499 284.523 41.882Z" fill="#B7B7B7"/>
<path fill-rule="evenodd" clip-rule="evenodd" d="M387.527 21.871C386.545 20.621 385.074 19.948 383.18 19.948C380.196 19.948 377.131 22.476 377.131 26.734C377.131 30.992 380.196 33.52 383.18 33.52C385.074 33.52 386.545 32.86 387.527 31.597V32.655C387.527 35.1 386.055 36.584 383.385 36.584C381.791 36.584 380.278 36.061 378.957 35.251L377.921 37.683C379.297 38.672 381.436 39.208 383.385 39.208C387.745 39.208 390.388 36.667 390.388 32.531V20.291H387.527V21.871ZM380.06 26.734C380.06 24.509 381.504 22.654 383.915 22.654C386.218 22.654 387.772 24.427 387.772 26.734C387.772 29.042 386.218 30.814 383.915 30.814C381.504 30.814 380.06 28.947 380.06 26.734Z" fill="#B7B7B7"/>
<path fill-rule="evenodd" clip-rule="evenodd" d="M371.841 21.885C370.942 20.717 369.593 19.948 367.74 19.948C364.09 19.948 361.214 22.846 361.214 26.871C361.214 30.896 364.089 33.795 367.74 33.795C369.594 33.795 370.942 33.04 371.841 31.872V33.452H374.689V20.292H371.841V21.885ZM364.143 26.871C364.143 24.564 365.629 22.654 368.081 22.654C370.438 22.654 372.019 24.467 372.019 26.871C372.019 29.275 370.438 31.089 368.081 31.089C365.629 31.089 364.143 29.179 364.143 26.871Z" fill="#B7B7B7"/>
<path fill-rule="evenodd" clip-rule="evenodd" d="M405.5 26.858C405.487 22.751 402.98 19.948 399.328 19.948C395.486 19.948 392.829 22.751 392.829 26.872C392.829 31.048 395.595 33.796 399.505 33.796C401.481 33.796 403.279 33.316 404.873 31.942L403.456 29.894C402.38 30.759 400.99 31.282 399.682 31.282C397.829 31.282 396.181 30.292 395.799 27.929H405.446C405.473 27.6 405.5 27.229 405.5 26.858ZM395.813 25.745C396.113 23.822 397.243 22.503 399.273 22.503C401.086 22.503 402.271 23.698 402.584 25.745H395.813Z" fill="#B7B7B7"/>
<path d="M331.832 27.9558L326.287 14.2191H321.559V33.4521H324.639V17.7771L330.21 31.5701H333.453L339.026 17.6261V33.4521H342.106V14.2191H337.377L331.832 27.9558Z" fill="#B7B7B7"/>
<path d="M348.704 20.2921V33.4521H345.843V20.2921H348.704Z" fill="#B7B7B7"/>
<path d="M360.886 20.3191C360.886 20.319 360.886 20.3191 360.886 20.3191V20.3191Z" fill="#B7B7B7"/>
<path d="M358.692 19.9491C359.564 19.9491 360.232 20.0581 360.886 20.3191L360.204 23.1611C359.605 22.8451 358.733 22.6801 358.038 22.6801C356.226 22.6801 354.932 23.9721 354.932 26.2101V33.4501H352.084V20.2901H354.904V21.7751C355.762 20.5251 357.098 19.9491 358.692 19.9491Z" fill="#B7B7B7"/>
<path d="M347.259 13.7111C348.39 13.7111 349.276 14.6041 349.276 15.7441C349.276 16.8841 348.39 17.7501 347.259 17.7501C346.129 17.7501 345.269 16.8841 345.269 15.7441C345.269 14.6041 346.129 13.7111 347.259 13.7111Z" fill="#B7B7B7"/>
</g>
<g clip-path="url(#clip3_586_1708)">
<path fill-rule="evenodd" clip-rule="evenodd" d="M305.029 354.273C305.029 350.256 301.8 347 297.816 347C293.833 347 290.603 350.256 290.603 354.273C290.6 356.16 291.329 357.975 292.638 359.335L290.788 362.144L284.84 352.955C284.736 352.795 284.593 352.664 284.423 352.576C284.254 352.487 284.065 352.444 283.874 352.451C283.683 352.457 283.497 352.512 283.334 352.612C283.171 352.711 283.037 352.851 282.944 353.018L272.591 371.58H268.611C267.998 371.58 267.501 372.08 267.501 372.698C267.501 373.316 267.998 373.816 268.61 373.816H305.406C305.417 373.816 305.429 373.816 305.44 373.816H310.052C310.665 373.816 311.162 373.316 311.162 372.698C311.162 372.08 310.665 371.58 310.052 371.58H306.072L300.258 361.118C301.66 360.605 302.869 359.672 303.723 358.448C304.576 357.223 305.032 355.766 305.029 354.273ZM296.895 371.58L292.107 364.183L296.072 358.162L303.529 371.58H296.895ZM283.98 355.72L294.247 371.58H275.135L283.98 355.72ZM301.917 357.386C302.59 356.488 302.952 355.395 302.949 354.273C302.949 351.414 300.651 349.097 297.816 349.097C294.981 349.097 292.682 351.414 292.682 354.273C292.68 355.458 293.083 356.607 293.826 357.53L295.228 355.4C295.333 355.241 295.477 355.112 295.646 355.025C295.815 354.938 296.004 354.896 296.194 354.903C296.384 354.91 296.57 354.967 296.732 355.066C296.894 355.166 297.028 355.306 297.12 355.472L299.221 359.253C300.299 358.94 301.245 358.284 301.917 357.386Z" fill="#B7B7B7"/>
<path d="M276.013 378.29C276.013 377.673 276.509 377.173 277.12 377.173H301.541C302.152 377.173 302.648 377.673 302.648 378.29C302.648 378.906 302.152 379.406 301.54 379.406H277.12C276.509 379.406 276.013 378.907 276.013 378.29Z" fill="#B7B7B7"/>
<path d="M284.523 383.882C284.523 383.264 285.02 382.763 285.633 382.763H293.028C293.641 382.763 294.138 383.264 294.138 383.882C294.138 384.5 293.641 385 293.029 385H285.633C285.02 385 284.523 384.499 284.523 383.882Z" fill="#B7B7B7"/>
<path fill-rule="evenodd" clip-rule="evenodd" d="M387.527 363.871C386.545 362.621 385.074 361.948 383.18 361.948C380.196 361.948 377.131 364.476 377.131 368.734C377.131 372.992 380.196 375.52 383.18 375.52C385.074 375.52 386.545 374.86 387.527 373.597V374.655C387.527 377.1 386.055 378.584 383.385 378.584C381.791 378.584 380.278 378.061 378.957 377.251L377.921 379.683C379.297 380.672 381.436 381.208 383.385 381.208C387.745 381.208 390.388 378.667 390.388 374.531V362.291H387.527V363.871ZM380.06 368.734C380.06 366.509 381.504 364.654 383.915 364.654C386.218 364.654 387.772 366.427 387.772 368.734C387.772 371.042 386.218 372.814 383.915 372.814C381.504 372.814 380.06 370.947 380.06 368.734Z" fill="#B7B7B7"/>
<path fill-rule="evenodd" clip-rule="evenodd" d="M371.841 363.885C370.942 362.717 369.593 361.948 367.74 361.948C364.09 361.948 361.214 364.846 361.214 368.871C361.214 372.896 364.089 375.795 367.74 375.795C369.594 375.795 370.942 375.04 371.841 373.872V375.452H374.689V362.292H371.841V363.885ZM364.143 368.871C364.143 366.564 365.629 364.654 368.081 364.654C370.438 364.654 372.019 366.467 372.019 368.871C372.019 371.275 370.438 373.089 368.081 373.089C365.629 373.089 364.143 371.179 364.143 368.871Z" fill="#B7B7B7"/>
<path fill-rule="evenodd" clip-rule="evenodd" d="M405.5 368.858C405.487 364.751 402.98 361.948 399.328 361.948C395.486 361.948 392.829 364.751 392.829 368.872C392.829 373.048 395.595 375.796 399.505 375.796C401.481 375.796 403.279 375.316 404.873 373.942L403.456 371.894C402.38 372.759 400.99 373.282 399.682 373.282C397.829 373.282 396.181 372.292 395.799 369.929H405.446C405.473 369.6 405.5 369.229 405.5 368.858ZM395.813 367.745C396.113 365.822 397.243 364.503 399.273 364.503C401.086 364.503 402.271 365.698 402.584 367.745H395.813Z" fill="#B7B7B7"/>
<path d="M331.832 369.956L326.287 356.219H321.559V375.452H324.639V359.777L330.21 373.57H333.453L339.026 359.626V375.452H342.106V356.219H337.377L331.832 369.956Z" fill="#B7B7B7"/>
<path d="M348.704 362.292V375.452H345.843V362.292H348.704Z" fill="#B7B7B7"/>
<path d="M360.886 362.319C360.886 362.319 360.886 362.319 360.886 362.319V362.319Z" fill="#B7B7B7"/>
<path d="M358.692 361.949C359.564 361.949 360.232 362.058 360.886 362.319L360.204 365.161C359.605 364.845 358.733 364.68 358.038 364.68C356.226 364.68 354.932 365.972 354.932 368.21V375.45H352.084V362.29H354.904V363.775C355.762 362.525 357.098 361.949 358.692 361.949Z" fill="#B7B7B7"/>
<path d="M347.259 355.711C348.39 355.711 349.276 356.604 349.276 357.744C349.276 358.884 348.39 359.75 347.259 359.75C346.129 359.75 345.269 358.884 345.269 357.744C345.269 356.604 346.129 355.711 347.259 355.711Z" fill="#B7B7B7"/>
</g>
<g clip-path="url(#clip4_586_1708)">
<path d="M18.81 142.903L33.56 127.087L30.249 124L15.5 139.816L18.81 142.903ZM21.292 153L36.04 137.184L32.73 134.097L17.982 149.913L21.292 153ZM52.553 134.784C52.1683 134.303 51.6742 133.921 51.112 133.669C50.518 133.393 49.946 133.255 49.394 133.255C49.11 133.255 48.822 133.28 48.53 133.33C48.237 133.38 47.974 133.477 47.74 133.619C47.506 133.761 47.31 133.945 47.15 134.17C46.992 134.396 46.913 134.684 46.913 135.035C46.913 135.335 46.975 135.587 47.101 135.787C47.226 135.987 47.41 136.163 47.652 136.314C47.894 136.464 48.182 136.602 48.517 136.727C48.851 136.853 49.227 136.982 49.645 137.116C50.247 137.316 50.874 137.538 51.525 137.78C52.1618 138.014 52.7613 138.339 53.305 138.745C53.84 139.146 54.283 139.644 54.634 140.237C54.984 140.83 55.16 141.57 55.16 142.456C55.16 143.475 54.972 144.356 54.596 145.1C54.2381 145.822 53.7195 146.453 53.08 146.943C52.4273 147.436 51.6874 147.802 50.899 148.021C50.0755 148.255 49.2232 148.373 48.367 148.371C47.097 148.371 45.868 148.151 44.682 147.708C43.495 147.265 42.509 146.634 41.723 145.815L44.531 142.957C44.966 143.492 45.538 143.939 46.248 144.298C46.958 144.658 47.665 144.838 48.367 144.838C48.684 144.838 48.993 144.804 49.294 144.737C49.595 144.67 49.858 144.561 50.084 144.411C50.309 144.261 50.489 144.06 50.623 143.809C50.757 143.559 50.823 143.258 50.823 142.907C50.823 142.573 50.74 142.288 50.573 142.054C50.3791 141.796 50.1361 141.579 49.858 141.415C49.4942 141.198 49.1075 141.021 48.705 140.889C48.245 140.73 47.723 140.559 47.138 140.375C46.5698 140.191 46.0131 139.973 45.471 139.723C44.9387 139.48 44.4481 139.154 44.017 138.758C43.5829 138.354 43.2335 137.868 42.989 137.328C42.73 136.769 42.601 136.088 42.601 135.286C42.601 134.3 42.801 133.456 43.202 132.754C43.5911 132.065 44.1313 131.474 44.782 131.024C45.4521 130.565 46.1993 130.229 46.988 130.034C47.7989 129.826 48.6328 129.72 49.47 129.72C50.472 129.72 51.496 129.904 52.54 130.272C53.585 130.64 54.5 131.182 55.286 131.902L52.553 134.784ZM62.23 138.52V143.283C62.23 143.868 62.343 144.306 62.568 144.599C62.794 144.891 63.199 145.038 63.784 145.038C63.984 145.038 64.198 145.021 64.424 144.988C64.6175 144.963 64.8069 144.913 64.987 144.838L65.037 147.845C64.754 147.945 64.394 148.033 63.96 148.109C63.5293 148.184 63.0931 148.221 62.656 148.221C61.82 148.221 61.118 148.117 60.55 147.908C59.982 147.699 59.527 147.398 59.184 147.006C58.8343 146.6 58.5812 146.12 58.444 145.602C58.2874 145.009 58.2117 144.397 58.219 143.784V138.52H56.213V135.436H58.193V132.152H62.23V135.436H65.163V138.52H62.23ZM74.464 142.48H73.937C73.486 142.48 73.031 142.501 72.571 142.543C72.111 142.585 71.701 142.665 71.343 142.781C71.0109 142.882 70.7065 143.058 70.453 143.295C70.219 143.521 70.102 143.818 70.102 144.185C70.102 144.419 70.156 144.62 70.265 144.787C70.373 144.954 70.511 145.087 70.678 145.188C70.845 145.288 71.038 145.359 71.255 145.401C71.472 145.443 71.681 145.464 71.882 145.464C72.717 145.464 73.356 145.234 73.799 144.774C74.242 144.314 74.464 143.692 74.464 142.907V142.481V142.48ZM66.918 137.14C67.6536 136.438 68.5295 135.9 69.488 135.561C70.4483 135.213 71.4617 135.035 72.483 135.035C73.536 135.035 74.426 135.165 75.153 135.424C75.88 135.683 76.469 136.084 76.92 136.627C77.372 137.17 77.702 137.855 77.91 138.683C78.12 139.51 78.224 140.492 78.224 141.628V147.921H74.464V146.592H74.388C74.071 147.11 73.59 147.512 72.947 147.795C72.287 148.082 71.5738 148.228 70.854 148.221C70.3294 148.218 69.8072 148.151 69.299 148.021C68.7756 147.892 68.2792 147.671 67.833 147.369C67.3811 147.058 67.0079 146.646 66.743 146.166C66.458 145.664 66.316 145.046 66.316 144.311C66.316 143.408 66.563 142.681 67.056 142.13C67.549 141.578 68.184 141.152 68.961 140.851C69.738 140.551 70.603 140.35 71.556 140.25C72.508 140.15 73.436 140.099 74.338 140.099V139.899C74.338 139.28 74.121 138.825 73.687 138.532C73.252 138.24 72.717 138.093 72.082 138.093C71.497 138.093 70.933 138.219 70.39 138.47C69.8823 138.697 69.4128 139.001 68.998 139.372L66.918 137.141V137.14ZM85.606 138.52V143.283C85.606 143.868 85.718 144.306 85.944 144.599C86.169 144.891 86.574 145.038 87.16 145.038C87.36 145.038 87.573 145.021 87.799 144.988C88.025 144.954 88.213 144.904 88.363 144.838L88.413 147.845C88.129 147.945 87.77 148.033 87.335 148.109C86.9047 148.184 86.4687 148.221 86.032 148.221C85.196 148.221 84.494 148.117 83.926 147.908C83.358 147.699 82.902 147.398 82.56 147.006C82.2102 146.6 81.9571 146.12 81.82 145.602C81.6631 145.009 81.5871 144.397 81.594 143.784V138.52H79.59V135.436H81.57V132.152H85.607V135.436H88.54V138.52H85.607H85.606ZM94.931 131.45C94.931 131.768 94.868 132.064 94.743 132.34C94.6233 132.608 94.4532 132.851 94.242 133.055C93.7889 133.476 93.1932 133.709 92.575 133.707C91.906 133.707 91.346 133.485 90.895 133.042C90.6781 132.838 90.506 132.591 90.3895 132.317C90.2729 132.043 90.2146 131.748 90.218 131.45C90.218 131.15 90.277 130.861 90.394 130.585C90.511 130.31 90.678 130.071 90.895 129.871C91.112 129.671 91.363 129.507 91.647 129.382C91.931 129.257 92.24 129.194 92.575 129.194C92.892 129.194 93.197 129.252 93.49 129.369C93.782 129.486 94.033 129.645 94.242 129.846C94.451 130.046 94.618 130.285 94.743 130.56C94.869 130.836 94.931 131.133 94.931 131.45ZM90.52 147.92V135.437H94.631V147.922H90.52V147.92ZM105.793 139.472C105.539 139.156 105.212 138.906 104.84 138.745C104.456 138.565 104.036 138.471 103.612 138.47C103.177 138.47 102.784 138.557 102.433 138.733C102.088 138.904 101.781 139.143 101.531 139.435C101.281 139.727 101.084 140.065 100.941 140.45C100.798 140.843 100.726 141.259 100.729 141.678C100.729 142.113 100.796 142.522 100.929 142.907C101.057 143.281 101.257 143.626 101.519 143.922C101.777 144.215 102.087 144.444 102.446 144.612C102.806 144.779 103.211 144.862 103.662 144.862C104.08 144.862 104.493 144.782 104.902 144.624C105.312 144.465 105.642 144.235 105.892 143.934L108.174 146.717C107.656 147.219 106.988 147.611 106.169 147.895C105.33 148.183 104.448 148.327 103.561 148.322C102.623 148.33 101.691 148.177 100.804 147.87C99.9822 147.587 99.227 147.14 98.585 146.554C97.9512 145.967 97.4473 145.254 97.106 144.461C96.746 143.642 96.567 142.715 96.567 141.678C96.567 140.658 96.747 139.74 97.107 138.921C97.4481 138.128 97.9515 137.415 98.585 136.828C99.2284 136.241 99.9829 135.789 100.804 135.498C102.109 135.032 103.514 134.916 104.878 135.16C105.321 135.244 105.747 135.357 106.156 135.499C106.566 135.641 106.942 135.816 107.284 136.025C107.627 136.235 107.924 136.464 108.174 136.715L105.793 139.472ZM120.884 147.921L114.291 139.748H114.241V147.921H110.029V130.17H114.241V137.39H114.316L120.659 130.17H126.023L118.377 138.343L126.475 147.92H120.884V147.921ZM132.09 131.451C132.09 131.768 132.028 132.064 131.902 132.341C131.782 132.609 131.612 132.851 131.401 133.055C130.948 133.475 130.352 133.708 129.734 133.707C129.065 133.707 128.505 133.485 128.054 133.042C127.837 132.838 127.665 132.591 127.549 132.317C127.432 132.043 127.374 131.748 127.377 131.45C127.377 131.15 127.436 130.861 127.553 130.585C127.67 130.31 127.837 130.071 128.054 129.871C128.271 129.671 128.522 129.507 128.806 129.382C129.09 129.257 129.399 129.194 129.734 129.194C130.352 129.193 130.948 129.426 131.401 129.846C131.61 130.046 131.777 130.285 131.902 130.56C132.028 130.836 132.09 131.133 132.09 131.45V131.451ZM127.678 147.921V135.436H131.789V147.921H127.678ZM139.511 138.52V143.283C139.511 143.868 139.623 144.306 139.849 144.599C140.075 144.891 140.48 145.038 141.065 145.038C141.265 145.038 141.479 145.021 141.704 144.988C141.898 144.964 142.088 144.913 142.268 144.838L142.318 147.845C142.034 147.945 141.675 148.033 141.24 148.109C140.81 148.184 140.374 148.221 139.937 148.221C139.101 148.221 138.399 148.117 137.831 147.908C137.263 147.699 136.807 147.398 136.465 147.006C136.115 146.6 135.862 146.12 135.725 145.602C135.569 145.009 135.493 144.397 135.5 143.784V138.52H133.494V135.436H135.475V132.152H139.511V135.436H142.444V138.52H139.511Z" fill="#B7B7B7"/>
</g>
<path fill-rule="evenodd" clip-rule="evenodd" d="M284 124L302 118V127.5L308 125.5V157L290 151V145.5L284 143.5V124ZM302 149.5L292 146.167V149.56L306 154.225V128.275L302 129.608V149.5Z" fill="#B7B7B7"/>
<path d="M326.9 145V134.451H323.39V131.058H334.876V134.45H331.346V145H326.9Z" fill="#B7B7B7"/>
<path d="M343.481 145.254C339.405 145.254 337.105 143.226 337.105 139.248V131.058H341.511V139.073C341.511 140.886 341.901 141.783 343.481 141.783C345.041 141.783 345.431 140.886 345.431 139.053V131.058H349.877V139.209C349.877 143.401 347.381 145.254 343.481 145.254Z" fill="#B7B7B7"/>
<path fill-rule="evenodd" clip-rule="evenodd" d="M352.965 145V131.058H358.523C362.54 131.058 364.256 132.852 364.256 135.835V135.913C364.256 138.819 362.326 140.457 358.718 140.457H357.372V145H352.965ZM358.288 137.493H357.372V134.353H358.308C359.458 134.353 360.063 134.783 360.063 135.855V135.933C360.063 136.966 359.458 137.493 358.288 137.493Z" fill="#B7B7B7"/>
<path d="M366.563 131.058V145H376.06V141.588H370.99V131.058H366.563Z" fill="#B7B7B7"/>
<path d="M378.562 145V131.058H388.468V134.451H382.969V136.421H387.337V139.521H382.969V141.607H388.78V145H378.562Z" fill="#B7B7B7"/>
<path fill-rule="evenodd" clip-rule="evenodd" d="M49.4576 241.024L49.4594 241.028C49.4609 241.031 49.4624 241.034 49.4637 241.038C49.4651 241.041 49.4663 241.045 49.467 241.048C49.4812 241.102 49.4886 241.157 49.489 241.212V249.798C49.4892 249.908 49.4605 250.016 49.4059 250.111C49.3514 250.206 49.2728 250.286 49.178 250.341L42.04 254.491V262.714C42.0401 262.824 42.0113 262.932 41.9565 263.027C41.9018 263.123 41.823 263.202 41.728 263.257L26.829 271.917C26.7947 271.936 26.7585 271.95 26.721 271.961C26.7163 271.963 26.7118 271.965 26.7072 271.967C26.6981 271.972 26.689 271.976 26.679 271.979C26.5749 272.007 26.4651 272.007 26.361 271.979C26.3541 271.977 26.3473 271.975 26.3408 271.972L26.333 271.968L26.313 271.958L26.3021 271.954C26.2708 271.944 26.2396 271.933 26.21 271.916L11.311 263.257C11.2162 263.202 11.1376 263.122 11.0831 263.027C11.0285 262.932 10.9998 262.824 11 262.714V236.956C11.0004 236.901 11.0074 236.846 11.021 236.793C11.0241 236.783 11.0284 236.774 11.0325 236.765C11.0364 236.757 11.0401 236.749 11.043 236.74L11.063 236.687C11.0686 236.672 11.0753 236.657 11.083 236.643C11.0904 236.631 11.0997 236.62 11.109 236.608C11.1148 236.601 11.1206 236.594 11.126 236.587C11.1309 236.58 11.1357 236.573 11.1404 236.566C11.1528 236.548 11.165 236.53 11.181 236.514C11.1925 236.503 11.2057 236.493 11.2189 236.484C11.2263 236.478 11.2338 236.473 11.241 236.467C11.248 236.462 11.2549 236.456 11.2617 236.45C11.2772 236.437 11.2926 236.424 11.31 236.414L18.76 232.084C18.8541 232.029 18.9611 232 19.07 232C19.1789 232 19.2859 232.029 19.38 232.084L26.83 236.414C26.8474 236.424 26.8628 236.437 26.8783 236.45C26.8851 236.456 26.892 236.462 26.899 236.467L26.92 236.483C26.934 236.493 26.948 236.503 26.96 236.514C26.9749 236.53 26.9883 236.547 27 236.565L27.015 236.587C27.0204 236.595 27.0265 236.602 27.0326 236.61C27.0412 236.62 27.05 236.631 27.057 236.643C27.0714 236.668 27.0815 236.697 27.0915 236.725L27.097 236.74L27.107 236.762L27.119 236.792C27.133 236.846 27.1401 236.901 27.14 236.956V253.044L33.348 249.436V241.212C33.3483 241.157 33.3557 241.102 33.37 241.049C33.3728 241.038 33.3772 241.029 33.3816 241.019C33.385 241.011 33.3884 241.004 33.391 240.996L33.398 240.976C33.4067 240.949 33.4177 240.924 33.431 240.899C33.4387 240.886 33.4474 240.874 33.457 240.863C33.4629 240.857 33.4685 240.85 33.474 240.843L33.4876 240.824C33.5006 240.805 33.5134 240.786 33.529 240.77C33.5365 240.763 33.544 240.757 33.5515 240.751L33.559 240.745L33.5658 240.74C33.5738 240.735 33.582 240.729 33.589 240.723L33.625 240.693C33.6354 240.685 33.6464 240.677 33.658 240.67L41.108 236.34C41.2021 236.285 41.3091 236.256 41.418 236.256C41.5269 236.256 41.6339 236.285 41.728 236.34L49.178 240.67C49.1944 240.679 49.2083 240.691 49.2222 240.703C49.2303 240.71 49.2385 240.717 49.247 240.723L49.269 240.739L49.2764 240.745C49.2872 240.753 49.2981 240.761 49.307 240.77C49.322 240.786 49.3354 240.803 49.347 240.822L49.363 240.843C49.3681 240.85 49.3735 240.857 49.379 240.863C49.389 240.875 49.398 240.886 49.405 240.899C49.4185 240.925 49.4299 240.951 49.439 240.979L49.445 240.996L49.455 241.018L49.4576 241.024ZM20.322 258.453L26.518 261.993L40.17 254.126L33.969 250.521L20.322 258.453ZM40.798 253.044V245.904L34.59 242.297V249.437L40.798 253.044ZM47.624 241.213L41.418 237.606L35.213 241.213L41.418 244.819L47.624 241.213ZM19.691 241.648V257.374L25.899 253.765V238.04L19.69 241.648H19.691ZM25.275 236.956L19.07 233.35L12.864 236.956L19.07 240.563L25.275 236.956ZM18.449 241.65L12.241 238.04V262.35L25.9 270.29V263.08L18.765 259.004L18.763 259.003L18.759 259C18.7411 258.989 18.7258 258.976 18.7105 258.963L18.7007 258.954L18.692 258.947C18.6848 258.942 18.6775 258.937 18.67 258.932C18.6568 258.923 18.6444 258.913 18.633 258.902L18.631 258.9C18.6199 258.889 18.6103 258.876 18.6009 258.863L18.596 258.856C18.5908 258.849 18.5855 258.841 18.58 258.834L18.55 258.796C18.5441 258.789 18.5388 258.781 18.534 258.773L18.533 258.771C18.5233 258.754 18.5156 258.736 18.51 258.717L18.5 258.693L18.485 258.66C18.4792 258.648 18.4746 258.635 18.471 258.622C18.4656 258.6 18.4623 258.577 18.461 258.554L18.458 258.529L18.4562 258.516L18.454 258.503L18.4526 258.494C18.4508 258.482 18.449 258.471 18.449 258.459V241.65ZM27.14 270.29L40.797 262.353V255.209L27.14 263.079V270.29ZM42.04 253.043L48.248 249.435V242.295L42.04 245.904V253.043Z" fill="#B7B7B7"/>
<path d="M143.739 241.214H147V262.36H143.739V241.214Z" fill="#B7B7B7"/>
<path d="M59.393 241.215H62.834V259.249H69.297V262.36H59.393V241.215Z" fill="#B7B7B7"/>
<path fill-rule="evenodd" clip-rule="evenodd" d="M81.446 250.186C81.006 249.481 80.384 248.928 79.576 248.525C78.767 248.122 77.955 247.92 77.137 247.92C76.079 247.92 75.112 248.117 74.235 248.51C73.3784 248.887 72.609 249.438 71.975 250.126C71.3423 250.818 70.8451 251.622 70.509 252.497C70.159 253.393 69.985 254.335 69.985 255.321C69.9782 256.292 70.156 257.256 70.509 258.161C70.8471 259.03 71.3439 259.829 71.974 260.517C72.6079 261.206 73.3773 261.756 74.234 262.133C75.112 262.526 76.079 262.722 77.136 262.722C77.955 262.722 78.768 262.521 79.576 262.118C80.384 261.716 81.007 261.162 81.446 260.457V262.36H84.707V248.283H81.446V250.186ZM81.147 257.043C80.9603 257.565 80.6759 258.047 80.309 258.463C79.9447 258.87 79.5018 259.199 79.007 259.43C78.498 259.672 77.934 259.792 77.316 259.792C76.737 259.801 76.1637 259.677 75.64 259.43C75.142 259.188 74.714 258.866 74.354 258.463C73.9883 258.049 73.7085 257.566 73.531 257.043C73.341 256.5 73.247 255.926 73.247 255.322C73.2437 254.736 73.3397 254.154 73.531 253.6C73.72 253.056 73.994 252.583 74.354 252.18C74.7147 251.776 75.1517 251.447 75.64 251.213C76.139 250.971 76.697 250.851 77.317 250.851C77.9003 250.844 78.4779 250.967 79.007 251.213C79.5017 251.444 79.9445 251.773 80.309 252.18C80.6758 252.596 80.9602 253.078 81.147 253.6C81.346 254.143 81.447 254.717 81.447 255.322C81.449 255.909 81.3475 256.491 81.147 257.043Z" fill="#B7B7B7"/>
<path fill-rule="evenodd" clip-rule="evenodd" d="M106.088 248.525C106.895 248.928 107.518 249.481 107.958 250.186V248.283H111.219V262.36H107.958V260.458C107.518 261.162 106.896 261.716 106.088 262.118C105.279 262.521 104.467 262.723 103.649 262.723C102.591 262.723 101.624 262.526 100.747 262.133C99.8903 261.756 99.1208 261.206 98.487 260.517C97.8566 259.83 97.3595 259.031 97.021 258.162C96.671 257.275 96.497 256.329 96.497 255.322C96.4931 254.356 96.6709 253.398 97.021 252.497C97.3567 251.622 97.8537 250.818 98.486 250.126C99.12 249.438 99.8894 248.887 100.746 248.51C101.624 248.117 102.591 247.921 103.648 247.921C104.467 247.921 105.28 248.122 106.088 248.525ZM106.82 258.463C107.187 258.047 107.471 257.565 107.658 257.043C107.858 256.5 107.958 255.926 107.958 255.322C107.958 254.717 107.857 254.143 107.659 253.6C107.459 253.056 107.18 252.583 106.82 252.18C106.461 251.778 106.028 251.455 105.518 251.213C105.01 250.971 104.446 250.851 103.828 250.851C103.249 250.842 102.676 250.966 102.152 251.213C101.664 251.447 101.227 251.776 100.866 252.18C100.5 252.594 100.22 253.077 100.043 253.6C99.853 254.143 99.758 254.717 99.758 255.322C99.755 255.908 99.8514 256.49 100.043 257.043C100.22 257.566 100.5 258.049 100.866 258.463C101.226 258.867 101.664 259.196 102.152 259.43C102.651 259.672 103.21 259.792 103.828 259.792C104.412 259.8 104.99 259.676 105.519 259.43C106.013 259.199 106.456 258.87 106.82 258.463Z" fill="#B7B7B7"/>
<path d="M87.281 262.36H90.543V251.523H96.139V248.283H87.28L87.281 262.36Z" fill="#B7B7B7"/>
<path d="M120.197 259.063L124.296 248.283H127.6L122.246 262.36H118.147L112.794 248.283H116.097L120.197 259.063Z" fill="#B7B7B7"/>
<path fill-rule="evenodd" clip-rule="evenodd" d="M127.558 255.321C127.558 251.235 130.72 247.921 134.714 247.921C139.155 247.921 142.183 251.895 141.615 256.545H130.794C130.794 257.759 132.009 260.107 134.893 260.107C137.32 260.107 138.963 257.999 139.036 257.906C139.037 257.904 139.038 257.903 139.038 257.903L141.241 259.624C139.271 261.747 137.658 262.722 135.132 262.722C130.618 262.722 127.558 259.84 127.558 255.321ZM134.688 250.536C131.204 250.536 130.828 253.828 130.803 254.098H138.619C138.595 253.827 138.172 250.536 134.688 250.536Z" fill="#B7B7B7"/>
<g clip-path="url(#clip5_586_1708)">
<path fill-rule="evenodd" clip-rule="evenodd" d="M292.277 261.677C292.277 264.12 291.427 265.119 289.112 265.119H268.57C266.254 265.119 265.405 264.12 265.405 261.677V256.92C265.405 254.626 264.3 253.33 263.238 252.736C263.165 252.692 263.105 252.629 263.063 252.555C263.021 252.48 262.999 252.396 262.999 252.311C262.999 252.226 263.021 252.142 263.063 252.067C263.105 251.993 263.165 251.93 263.238 251.886C264.343 251.185 265.405 249.719 265.405 247.765V243.09C265.405 240.456 266.127 239.69 268.442 239.69H289.24C291.556 239.69 292.278 240.456 292.278 243.09V247.763C292.278 249.717 293.34 251.183 294.444 251.883C294.764 252.096 294.764 252.543 294.444 252.733C293.382 253.349 292.278 254.645 292.278 256.918V261.676L292.277 261.677ZM272.819 258.555C274.497 260.02 276.303 260.764 278.789 260.764C282.697 260.764 285.246 258.81 285.246 255.644C285.246 252.292 282.21 251.437 279.741 250.742C278.048 250.265 276.621 249.863 276.621 248.783C276.621 248.083 277.365 247.403 278.618 247.403C279.829 247.403 280.828 247.658 281.783 248.146C282.102 248.295 282.399 248.401 282.675 248.401C283.079 248.401 283.398 248.21 283.674 247.828L284.056 247.254C284.205 247.042 284.269 246.808 284.269 246.554C284.269 246.128 284.056 245.704 283.738 245.491C282.463 244.684 280.742 244.004 278.406 244.004C275.092 244.004 272.543 245.746 272.543 248.868C272.543 252.359 275.645 253.245 278.129 253.953C279.786 254.426 281.167 254.82 281.167 255.857C281.167 256.855 280.233 257.344 279.064 257.344C277.661 257.357 276.285 256.951 275.114 256.176C274.752 255.942 274.412 255.793 274.051 255.793C273.732 255.793 273.456 255.942 273.201 256.261L272.691 256.919C272.501 257.132 272.437 257.408 272.437 257.663C272.437 257.981 272.543 258.3 272.819 258.555ZM304.555 256.6C304.279 256.6 304.045 256.707 303.833 256.983L303.408 257.578C303.238 257.768 303.195 258.002 303.195 258.215C303.195 258.491 303.301 258.767 303.535 258.98C304.937 260.19 306.467 260.828 308.57 260.828C311.862 260.828 314.029 259.171 314.029 256.515C314.029 253.691 311.461 252.97 309.375 252.384C307.946 251.982 306.743 251.644 306.743 250.738C306.743 250.122 307.38 249.569 308.421 249.569C309.345 249.566 310.255 249.785 311.076 250.207L311.14 250.231C311.392 250.329 311.625 250.419 311.84 250.419C312.16 250.419 312.436 250.27 312.67 249.93L313.01 249.442C313.125 249.257 313.184 249.043 313.18 248.826C313.18 248.465 313.01 248.104 312.733 247.934C311.65 247.211 310.205 246.659 308.23 246.659C305.447 246.659 303.28 248.146 303.28 250.78C303.28 253.707 305.895 254.454 307.992 255.052C309.395 255.452 310.566 255.787 310.566 256.664C310.566 257.535 309.78 257.939 308.782 257.939C307.486 257.939 306.402 257.578 305.447 256.94C305.171 256.728 304.831 256.6 304.555 256.6ZM324.841 258.895C324.845 258.714 324.793 258.536 324.692 258.385L324.416 257.939C324.161 257.493 323.864 257.323 323.481 257.323C323.291 257.323 323.078 257.365 322.801 257.471C322.526 257.578 322.207 257.62 321.846 257.62C320.72 257.62 320.231 256.643 320.231 255.177V250.25H323.481C324.097 250.25 324.607 249.74 324.607 249.124V248.104C324.607 247.489 324.097 246.979 323.481 246.979H320.231V244.345C320.231 243.729 319.721 243.219 319.106 243.219H317.895C317.279 243.219 316.769 243.729 316.769 244.345V255.305C316.769 258.768 317.916 260.744 320.954 260.744C322.292 260.744 323.312 260.468 324.331 259.851C324.671 259.681 324.841 259.278 324.841 258.896V258.895ZM331.723 252.14C328.983 252.14 326.795 253.542 326.795 256.515C326.795 259.128 328.558 260.658 330.959 260.679C332.785 260.679 334.229 259.978 334.952 258.959V259.404C334.952 260.02 335.462 260.53 336.078 260.53H336.864C337.48 260.53 337.99 260.02 337.99 259.404V252.31C337.99 248.742 336.609 246.703 332.616 246.703C331.235 246.703 329.896 247.063 328.728 247.595C328.368 247.765 328.091 248.168 328.091 248.551C328.097 248.673 328.124 248.794 328.173 248.906C328.189 248.951 328.206 248.996 328.218 249.039L328.388 249.4C328.601 249.825 328.962 250.038 329.408 250.038C329.542 250.038 329.689 249.998 329.829 249.96L329.939 249.931C330.576 249.719 331.235 249.571 332.254 249.571C334.124 249.571 334.761 250.632 334.761 252.608V253.012C334.102 252.523 332.913 252.141 331.723 252.141V252.14ZM332.403 254.455C333.38 254.455 334.145 254.667 334.761 255.114H334.782V256.515C334.357 257.089 333.614 257.726 332.169 257.726C331.065 257.726 330.236 257.153 330.236 256.133C330.236 254.986 331.256 254.455 332.403 254.455ZM349.312 258.895C349.316 258.714 349.264 258.536 349.163 258.385L348.887 257.939C348.632 257.493 348.335 257.323 347.952 257.323C347.762 257.323 347.549 257.365 347.272 257.471C346.996 257.578 346.678 257.62 346.317 257.62C345.191 257.62 344.702 256.643 344.702 255.177V250.25H347.952C348.568 250.25 349.078 249.74 349.078 249.124V248.104C349.078 247.489 348.568 246.979 347.952 246.979H344.702V244.345C344.702 243.729 344.192 243.219 343.576 243.219H342.366C341.75 243.219 341.24 243.729 341.24 244.345V255.305C341.24 258.768 342.387 260.744 345.424 260.744C346.763 260.744 347.782 260.468 348.802 259.851C349.142 259.681 349.312 259.278 349.312 258.896V258.895ZM356.194 252.14C353.454 252.14 351.266 253.542 351.266 256.515C351.266 259.128 353.05 260.658 355.429 260.679C357.256 260.679 358.701 259.978 359.423 258.959V259.404C359.423 260.02 359.933 260.53 360.549 260.53H361.335C361.951 260.53 362.461 260.02 362.461 259.404V252.31C362.461 248.742 361.08 246.703 357.086 246.703C355.706 246.703 354.367 247.063 353.199 247.595C352.838 247.765 352.562 248.168 352.562 248.551C352.568 248.673 352.595 248.794 352.644 248.906C352.66 248.951 352.677 248.996 352.689 249.039L352.859 249.4C353.072 249.825 353.433 250.038 353.879 250.038C354.013 250.038 354.16 249.998 354.299 249.96L354.409 249.931C355.047 249.719 355.706 249.571 356.725 249.571C358.595 249.571 359.232 250.632 359.232 252.608V253.012C358.573 252.523 357.384 252.141 356.194 252.141V252.14ZM356.874 254.455C357.851 254.455 358.616 254.667 359.232 255.114H359.253V256.515C358.828 257.089 358.085 257.726 356.64 257.726C355.536 257.726 354.707 257.153 354.707 256.133C354.707 254.986 355.727 254.455 356.874 254.455ZM373.676 246.745C372.019 246.745 370.426 247.403 369.47 248.465H369.407V248.082C369.407 247.466 368.897 246.956 368.281 246.956H367.07C366.454 246.956 365.944 247.466 365.944 248.082V259.362C365.944 259.978 366.454 260.488 367.07 260.488H368.281C368.897 260.488 369.407 259.978 369.407 259.362V251.417C370.023 250.504 371.021 249.973 372.232 249.973C373.676 249.973 374.462 250.886 374.462 252.31V259.32C374.462 259.935 374.972 260.445 375.588 260.445H376.799C377.415 260.445 377.925 259.935 377.925 259.319V252.501C377.925 252.325 377.918 252.105 377.913 251.907C377.908 251.745 377.903 251.597 377.903 251.502C378.371 250.589 379.39 249.952 380.686 249.952C382.322 249.952 383.002 250.865 383.002 252.543V259.362C383.002 259.978 383.511 260.488 384.127 260.488H385.338C385.954 260.488 386.464 259.978 386.464 259.362V251.672C386.464 247.955 384.616 246.744 382.152 246.744C380.07 246.744 378.562 247.636 377.606 248.911C377.118 247.679 375.737 246.744 373.676 246.744V246.745ZM392.284 244.28C393.261 244.28 394.26 243.494 394.26 242.113C394.26 240.903 393.261 240.117 392.284 240.117C391.116 240.117 390.118 240.903 390.118 242.113C390.118 243.494 391.116 244.28 392.284 244.28ZM393.941 248.104C393.941 247.488 393.431 246.978 392.815 246.978V246.956H391.605C390.989 246.956 390.479 247.466 390.479 248.082V259.362C390.479 259.978 390.989 260.488 391.605 260.488H392.815C393.431 260.488 393.941 259.978 393.941 259.362V248.104ZM404.881 249.888C405.752 249.888 406.453 250.037 407.26 250.419C407.403 250.499 407.558 250.53 407.698 250.559L407.833 250.589C408.237 250.589 408.619 250.334 408.853 249.952L409.299 249.166C409.405 249.017 409.427 248.847 409.427 248.677C409.427 248.295 409.235 247.849 408.896 247.679C407.579 246.956 406.262 246.659 404.456 246.659C400.335 246.659 397.467 249.803 397.467 253.733C397.467 257.981 400.42 260.806 404.881 260.806C406.559 260.806 407.982 260.509 409.597 259.213C409.851 259.022 410 258.618 410 258.257C410 258.024 409.936 257.79 409.788 257.641L409.278 257.004C409.166 256.864 409.023 256.752 408.862 256.675C408.7 256.597 408.523 256.558 408.343 256.558C408.11 256.558 407.855 256.643 407.621 256.792C406.835 257.302 406.07 257.578 405.008 257.578C402.969 257.578 401.121 256.091 401.121 253.712C401.121 251.354 402.948 249.888 404.881 249.888Z" fill="#B7B7B7"/>
</g>
<defs>
<clipPath id="clip0_586_1708">
<rect width="158" height="48" fill="white"/>
</clipPath>
<clipPath id="clip1_586_1708">
<rect width="158" height="48" fill="white" transform="translate(0 342)"/>
</clipPath>
<clipPath id="clip2_586_1708">
<rect width="138" height="48" fill="white" transform="translate(267.5)"/>
</clipPath>
<clipPath id="clip3_586_1708">
<rect width="138" height="48" fill="white" transform="translate(267.5 342)"/>
</clipPath>
<clipPath id="clip4_586_1708">
<rect width="127" height="48" fill="white" transform="translate(15.5 114)"/>
</clipPath>
<clipPath id="clip5_586_1708">
<rect width="147" height="48" fill="white" transform="translate(263 228)"/>
</clipPath>
</defs>
</svg>
