<svg width="1198" height="410" viewBox="0 0 1198 410" fill="none" xmlns="http://www.w3.org/2000/svg">
<g filter="url(#filter0_dd_570_2439)">
<g clip-path="url(#clip0_570_2439)">
<rect width="1198" height="410" rx="16" fill="url(#paint0_linear_570_2439)"/>
<path d="M88.384 126H96.736C104.584 126 110.128 120.852 110.128 113.616C110.128 106.38 104.584 101.268 96.736 101.268H88.384V126ZM91.192 123.444V103.824H96.736C102.928 103.824 107.284 107.892 107.284 113.616C107.284 119.376 102.928 123.444 96.736 123.444H91.192ZM122.898 126.432C128.118 126.432 132.51 121.968 132.51 116.676C132.51 111.384 128.118 106.956 122.898 106.956C117.678 106.956 113.25 111.384 113.25 116.676C113.25 121.968 117.678 126.432 122.898 126.432ZM122.898 124.02C119.19 124.02 116.094 120.672 116.094 116.676C116.094 112.716 119.19 109.368 122.898 109.368C126.57 109.368 129.666 112.716 129.666 116.676C129.666 120.672 126.57 124.02 122.898 124.02ZM140.118 126H142.674L147.678 111.132L152.61 126H155.166L161.43 107.388H158.55L153.906 122.4L148.83 107.388H146.49L141.414 122.4L136.77 107.388H133.89L140.118 126ZM173.31 106.956C170.682 106.956 168.27 108.396 167.19 110.376V107.388H164.49V126H167.19V114.156C167.19 111.564 169.818 109.368 172.95 109.368C175.686 109.368 177.594 111.492 177.594 114.516V126H180.294V114.156C180.294 109.944 177.414 106.956 173.31 106.956ZM184.859 126H187.559V100.836H184.859V126ZM200.755 126.432C205.975 126.432 210.367 121.968 210.367 116.676C210.367 111.384 205.975 106.956 200.755 106.956C195.535 106.956 191.107 111.384 191.107 116.676C191.107 121.968 195.535 126.432 200.755 126.432ZM200.755 124.02C197.047 124.02 193.951 120.672 193.951 116.676C193.951 112.716 197.047 109.368 200.755 109.368C204.427 109.368 207.523 112.716 207.523 116.676C207.523 120.672 204.427 124.02 200.755 124.02ZM221.486 106.956C219.686 106.956 217.454 107.424 214.79 108.756L215.87 110.952C217.562 110.088 219.434 109.26 221.306 109.26C225.338 109.26 226.346 112.14 226.346 114.66V115.344C224.438 114.732 222.314 114.3 220.298 114.3C216.302 114.3 212.99 116.784 212.99 120.492C212.99 124.164 215.87 126.432 219.794 126.432C222.242 126.432 225.014 125.28 226.346 123.084V126H229.046V114.66C229.046 110.16 226.562 106.956 221.486 106.956ZM220.262 124.056C217.634 124.056 215.618 122.688 215.618 120.384C215.618 118.152 217.958 116.568 220.73 116.568C222.746 116.568 224.654 116.856 226.346 117.324V120.168C225.626 122.796 222.71 124.056 220.262 124.056ZM248.207 100.836V110.88C246.803 108.432 244.427 106.956 241.439 106.956C236.543 106.956 232.871 110.988 232.871 116.676C232.871 122.4 236.543 126.432 241.439 126.432C244.427 126.432 246.803 124.956 248.207 122.508V126H250.907V100.836H248.207ZM241.943 124.02C238.307 124.02 235.715 120.96 235.715 116.676C235.715 112.392 238.307 109.368 241.943 109.368C245.615 109.368 248.207 112.392 248.207 116.676C248.207 120.96 245.615 124.02 241.943 124.02ZM96.448 166.432C102.064 166.432 106.78 161.968 106.78 156.676C106.78 151.384 102.064 146.956 96.448 146.956C90.832 146.956 86.116 151.384 86.116 156.676C86.116 161.968 90.832 166.432 96.448 166.432ZM96.448 161.356C93.964 161.356 91.876 159.196 91.876 156.676C91.876 154.156 93.964 152.032 96.448 152.032C98.932 152.032 101.02 154.156 101.02 156.676C101.02 159.196 98.932 161.356 96.448 161.356ZM121.208 147.388V158.224L121.172 158.116C121.172 159.952 119.768 161.356 117.896 161.356C116.024 161.356 114.728 159.916 114.728 157.864V147.388H108.896V159.232C108.896 163.444 111.74 166.432 115.736 166.432C118.076 166.432 120.056 165.46 121.208 163.876V166H127.292V147.388H121.208ZM136.547 150.844V147.388H130.463V166H136.547V157.54L136.583 157.612C136.583 154.192 138.887 152.032 142.667 152.032V146.956C139.967 146.956 137.771 148.432 136.547 150.844ZM159.17 166H165.362L170.87 150.34L176.378 166H182.57L189.734 141.268H183.074L179.294 156.712L174.182 141.268H167.558L162.41 156.712L158.63 141.268H151.97L159.17 166ZM198.46 161.5C196.48 161.5 195.004 160.24 194.428 158.368H207.712C207.712 151.276 204.256 146.956 198.352 146.956C192.736 146.956 188.632 150.988 188.632 156.64C188.632 162.364 192.88 166.432 198.64 166.432C201.412 166.432 204.616 165.244 206.272 163.552L202.672 159.916C201.556 160.888 199.9 161.5 198.46 161.5ZM198.46 151.852C200.296 151.852 201.556 152.968 202.06 154.66H194.5C195.148 152.932 196.624 151.852 198.46 151.852ZM218.864 161.5C216.884 161.5 215.408 160.24 214.832 158.368H228.116C228.116 151.276 224.66 146.956 218.756 146.956C213.14 146.956 209.036 150.988 209.036 156.64C209.036 162.364 213.284 166.432 219.044 166.432C221.816 166.432 225.02 165.244 226.676 163.552L223.076 159.916C221.96 160.888 220.304 161.5 218.864 161.5ZM218.864 151.852C220.7 151.852 221.96 152.968 222.464 154.66H214.904C215.552 152.932 217.028 151.852 218.864 151.852ZM244.165 140.836V149.764C242.689 148 240.565 146.956 238.081 146.956C233.077 146.956 229.549 150.988 229.549 156.676C229.549 162.4 233.077 166.432 238.081 166.432C240.565 166.432 242.689 165.388 244.165 163.624V166H250.285V140.836H244.165ZM239.917 161.356C237.289 161.356 235.417 159.412 235.417 156.676C235.417 153.976 237.289 152.032 239.917 152.032C242.437 152.032 244.165 153.976 244.165 156.676C244.165 159.412 242.437 161.356 239.917 161.356ZM262.79 166H268.946V158.26H274.274C279.71 158.26 283.67 154.768 283.67 149.764C283.67 144.76 279.71 141.268 274.274 141.268H262.79V166ZM268.946 152.644V146.884H273.698C275.822 146.884 277.334 148.036 277.334 149.764C277.334 151.492 275.822 152.644 273.698 152.644H268.946ZM294.255 146.956C291.375 146.956 288.711 147.784 286.119 149.08L288.027 152.896C289.611 152.068 290.943 151.528 292.707 151.528C295.263 151.528 296.775 152.968 296.775 154.948V155.2C295.335 154.624 293.787 154.3 292.419 154.3C288.027 154.3 284.535 156.856 284.535 160.492C284.535 164.02 287.667 166.432 291.627 166.432C293.535 166.432 295.479 165.712 296.775 164.416V166H302.643V154.948C302.643 149.98 299.043 146.956 294.255 146.956ZM293.103 162.688C291.483 162.688 290.331 161.752 290.331 160.312C290.331 158.872 291.627 157.828 293.283 157.828C294.543 157.828 295.839 158.08 296.775 158.44V160.42C296.523 161.824 294.903 162.688 293.103 162.688ZM317.907 146.956C315.423 146.956 313.299 148 311.823 149.764V147.388H305.703V172.192H311.823V163.624C313.299 165.388 315.423 166.432 317.907 166.432C322.911 166.432 326.439 162.4 326.439 156.676C326.439 150.988 322.911 146.956 317.907 146.956ZM316.071 161.356C313.551 161.356 311.823 159.412 311.823 156.676C311.823 153.976 313.551 152.032 316.071 152.032C318.699 152.032 320.571 153.976 320.571 156.676C320.571 159.412 318.699 161.356 316.071 161.356ZM337.706 161.5C335.726 161.5 334.25 160.24 333.674 158.368H346.958C346.958 151.276 343.502 146.956 337.598 146.956C331.982 146.956 327.878 150.988 327.878 156.64C327.878 162.364 332.126 166.432 337.886 166.432C340.658 166.432 343.862 165.244 345.518 163.552L341.918 159.916C340.802 160.888 339.146 161.5 337.706 161.5ZM337.706 151.852C339.542 151.852 340.802 152.968 341.306 154.66H333.746C334.394 152.932 335.87 151.852 337.706 151.852ZM355.303 150.844V147.388H349.219V166H355.303V157.54L355.339 157.612C355.339 154.192 357.643 152.032 361.423 152.032V146.956C358.723 146.956 356.527 148.432 355.303 150.844Z" fill="white"/>
<g filter="url(#filter1_dd_570_2439)">
<rect x="85" y="223" width="229" height="50" rx="12" fill="white"/>
<path d="M161.106 253H165.042C168.738 253 171.362 250.712 171.362 247.496C171.362 244.28 168.738 242.008 165.042 242.008H161.106V253ZM163.458 250.856V244.152H165.346C167.442 244.152 168.93 245.544 168.93 247.496C168.93 249.464 167.442 250.856 165.346 250.856H163.458ZM177.182 253.192C179.63 253.192 181.678 251.208 181.678 248.856C181.678 246.504 179.63 244.536 177.182 244.536C174.718 244.536 172.654 246.504 172.654 248.856C172.654 251.208 174.718 253.192 177.182 253.192ZM177.182 251.224C175.934 251.224 174.894 250.136 174.894 248.856C174.894 247.576 175.934 246.504 177.182 246.504C178.414 246.504 179.454 247.576 179.454 248.856C179.454 250.136 178.414 251.224 177.182 251.224ZM184.948 253H187.044L188.596 247.8L190.132 253H192.228L195.044 244.728H192.756L191.188 249.88L189.556 244.728H187.62L185.988 249.88L184.42 244.728H182.132L184.948 253ZM201.105 244.536C200.033 244.536 199.105 245.016 198.609 245.768V244.728H196.273V253H198.609V248.056L198.625 248.104C198.625 247.208 199.377 246.504 200.353 246.504C201.281 246.504 201.921 247.208 201.921 248.232V253H204.177V247.736C204.177 245.864 202.897 244.536 201.105 244.536ZM206.149 253H208.485V241.816H206.149V253ZM214.588 253.192C217.036 253.192 219.084 251.208 219.084 248.856C219.084 246.504 217.036 244.536 214.588 244.536C212.124 244.536 210.06 246.504 210.06 248.856C210.06 251.208 212.124 253.192 214.588 253.192ZM214.588 251.224C213.34 251.224 212.3 250.136 212.3 248.856C212.3 247.576 213.34 246.504 214.588 246.504C215.82 246.504 216.86 247.576 216.86 248.856C216.86 250.136 215.82 251.224 214.588 251.224ZM224.361 244.536C223.209 244.536 222.073 244.856 220.905 245.448L221.689 247C222.345 246.664 223.065 246.408 223.833 246.408C225.193 246.408 225.737 247.176 225.737 248.056V248.216C225.033 247.944 224.297 247.8 223.625 247.8C221.705 247.8 220.185 248.92 220.185 250.552C220.185 252.136 221.545 253.192 223.305 253.192C224.201 253.192 225.145 252.84 225.737 252.168V253H227.993V248.056C227.993 245.896 226.521 244.536 224.361 244.536ZM223.833 251.576C223.033 251.576 222.441 251.16 222.441 250.488C222.441 249.816 223.113 249.32 223.961 249.32C224.601 249.32 225.209 249.432 225.737 249.624V250.392C225.577 251.16 224.729 251.576 223.833 251.576ZM236.138 241.816V245.912C235.482 245.048 234.522 244.536 233.354 244.536C231.146 244.536 229.546 246.328 229.546 248.856C229.546 251.4 231.146 253.192 233.354 253.192C234.522 253.192 235.482 252.68 236.138 251.816V253H238.474V241.816H236.138ZM234.026 251.224C232.73 251.224 231.818 250.248 231.818 248.856C231.818 247.48 232.73 246.504 234.026 246.504C235.258 246.504 236.138 247.48 236.138 248.856C236.138 250.248 235.258 251.224 234.026 251.224Z" fill="#181818"/>
</g>
<path opacity="0.65" fill-rule="evenodd" clip-rule="evenodd" d="M1079.82 134.673C1092.32 128.178 1101.37 115.688 1102.83 100.63C1105.11 76.9877 1087.8 55.9695 1064.15 53.6845C1049 52.2193 1034.91 58.8118 1026.16 69.9638C1019.56 66.8297 1012.18 64.1247 1003.92 61.9904C992.937 59.1231 982.469 57.4278 972.497 56.8458C962.6 55.5081 952.004 55.1676 940.682 55.879C904.584 58.0486 882.08 73.3096 867.798 89.6394C865.302 88.5575 862.596 87.8418 859.742 87.566C845.068 86.1477 832.022 96.8939 830.604 111.568C829.649 121.441 834.201 130.576 841.75 135.93C823.728 180.405 808.636 247.655 805.215 281.736C804.357 291.111 804.199 298.27 805.368 301.341C811.869 320.046 844.564 319.523 849.126 306.772C855.54 356.888 923.004 365.444 945.739 333.745C961.982 369.211 1029.84 373.733 1045.73 325.774C1047.76 339.162 1079.75 345.937 1089.72 328.824C1091.45 326.033 1092.67 318.976 1093.62 309.61C1097.01 273.199 1094.57 197.134 1083.73 150.268C1083.57 149.585 1083.4 148.849 1083.22 148.063L1083.22 148.06L1083.22 148.059L1083.22 148.058C1082.41 144.488 1081.37 139.895 1079.82 134.673ZM877.924 53.5644C877.136 61.7169 869.888 67.6871 861.736 66.8991C853.583 66.1112 847.613 58.8635 848.401 50.711C849.189 42.5585 856.437 36.5884 864.589 37.3763C872.742 38.1642 878.712 45.4119 877.924 53.5644ZM973.439 185.444C975.344 186.049 976.349 188.134 974.934 189.545C973.666 190.81 972.027 191.869 970.496 192.858C969.985 193.188 969.486 193.51 969.017 193.83C966.16 195.777 962.732 196.71 959.282 196.479C955.833 196.248 952.56 194.867 949.987 192.557C949.61 192.219 949.21 191.873 948.801 191.518C947.372 190.283 945.823 188.943 944.701 187.444C943.503 185.844 944.778 183.915 946.746 183.568C948.714 183.222 950.987 184.463 952.63 185.601C952.843 185.749 953.059 185.894 953.271 186.036C953.849 186.424 954.404 186.797 954.823 187.173C956.191 188.401 957.931 189.135 959.765 189.258C961.6 189.381 963.422 188.885 964.941 187.849C965.422 187.522 966.047 187.227 966.696 186.921L966.696 186.921C966.898 186.826 967.102 186.729 967.305 186.631C969.102 185.756 971.534 184.839 973.439 185.444ZM949.253 134.373C958.19 138.544 960.983 150.159 952.275 154.788C948.837 156.616 945.463 155.793 941.906 154.925C939.655 154.376 937.331 153.809 934.871 153.884C932.481 153.958 929.988 154.637 927.499 155.316C923.377 156.439 919.269 157.558 915.671 155.915C906.666 152.894 908.856 140.124 917.516 135.488C917.516 135.488 922.827 131.821 933.511 131.181C941.524 130.701 949.253 134.373 949.253 134.373ZM1014.71 146.545C1021.93 153.261 1021.02 165.172 1011.31 166.9C1007.48 167.582 1004.52 165.762 1001.4 163.842C999.43 162.627 997.392 161.373 995.028 160.689C992.732 160.024 990.15 159.904 987.573 159.784C983.306 159.585 979.053 159.387 976.134 156.718C968.494 151.074 974.504 139.596 984.17 137.848C984.17 137.848 990.351 135.991 1000.71 138.667C1008.49 140.674 1014.71 146.545 1014.71 146.545Z" fill="url(#paint1_linear_570_2439)"/>
</g>
</g>
<defs>
<filter id="filter0_dd_570_2439" x="-20" y="0" width="1238" height="450" filterUnits="userSpaceOnUse" color-interpolation-filters="sRGB">
<feFlood flood-opacity="0" result="BackgroundImageFix"/>
<feColorMatrix in="SourceAlpha" type="matrix" values="0 0 0 0 0 0 0 0 0 0 0 0 0 0 0 0 0 0 127 0" result="hardAlpha"/>
<feMorphology radius="5" operator="erode" in="SourceAlpha" result="effect1_dropShadow_570_2439"/>
<feOffset dy="10"/>
<feGaussianBlur stdDeviation="5"/>
<feColorMatrix type="matrix" values="0 0 0 0 0 0 0 0 0 0 0 0 0 0 0 0 0 0 0.04 0"/>
<feBlend mode="normal" in2="BackgroundImageFix" result="effect1_dropShadow_570_2439"/>
<feColorMatrix in="SourceAlpha" type="matrix" values="0 0 0 0 0 0 0 0 0 0 0 0 0 0 0 0 0 0 127 0" result="hardAlpha"/>
<feMorphology radius="5" operator="erode" in="SourceAlpha" result="effect2_dropShadow_570_2439"/>
<feOffset dy="20"/>
<feGaussianBlur stdDeviation="12.5"/>
<feColorMatrix type="matrix" values="0 0 0 0 0 0 0 0 0 0 0 0 0 0 0 0 0 0 0.1 0"/>
<feBlend mode="normal" in2="effect1_dropShadow_570_2439" result="effect2_dropShadow_570_2439"/>
<feBlend mode="normal" in="SourceGraphic" in2="effect2_dropShadow_570_2439" result="shape"/>
</filter>
<filter id="filter1_dd_570_2439" x="82" y="221" width="235" height="56" filterUnits="userSpaceOnUse" color-interpolation-filters="sRGB">
<feFlood flood-opacity="0" result="BackgroundImageFix"/>
<feColorMatrix in="SourceAlpha" type="matrix" values="0 0 0 0 0 0 0 0 0 0 0 0 0 0 0 0 0 0 127 0" result="hardAlpha"/>
<feOffset dy="1"/>
<feGaussianBlur stdDeviation="1"/>
<feColorMatrix type="matrix" values="0 0 0 0 0 0 0 0 0 0 0 0 0 0 0 0 0 0 0.06 0"/>
<feBlend mode="normal" in2="BackgroundImageFix" result="effect1_dropShadow_570_2439"/>
<feColorMatrix in="SourceAlpha" type="matrix" values="0 0 0 0 0 0 0 0 0 0 0 0 0 0 0 0 0 0 127 0" result="hardAlpha"/>
<feOffset dy="1"/>
<feGaussianBlur stdDeviation="1.5"/>
<feColorMatrix type="matrix" values="0 0 0 0 0 0 0 0 0 0 0 0 0 0 0 0 0 0 0.1 0"/>
<feBlend mode="normal" in2="effect1_dropShadow_570_2439" result="effect2_dropShadow_570_2439"/>
<feBlend mode="normal" in="SourceGraphic" in2="effect2_dropShadow_570_2439" result="shape"/>
</filter>
<linearGradient id="paint0_linear_570_2439" x1="599" y1="0" x2="599" y2="410" gradientUnits="userSpaceOnUse">
<stop stop-color="#1C1C1C"/>
<stop offset="1" stop-color="#0E0E0E"/>
</linearGradient>
<linearGradient id="paint1_linear_570_2439" x1="973.652" y1="44.9373" x2="943.546" y2="356.425" gradientUnits="userSpaceOnUse">
<stop offset="0.640625" stop-color="white"/>
<stop offset="1" stop-color="#B9B9B9"/>
</linearGradient>
<clipPath id="clip0_570_2439">
<rect width="1198" height="410" rx="16" fill="white"/>
</clipPath>
</defs>
</svg>
