<svg width="69" height="75" viewBox="0 0 69 75" fill="none" xmlns="http://www.w3.org/2000/svg">
<path fill-rule="evenodd" clip-rule="evenodd" d="M61.4798 18.7662C64.2821 16.9478 66.1359 13.7913 66.1359 10.2019C66.1359 4.56754 61.5683 0 55.934 0C52.3209 0 49.1466 1.87823 47.334 4.71157C45.704 4.12174 43.8988 3.6512 41.8979 3.33572C39.2407 2.90934 36.7309 2.74793 34.3634 2.83796C31.9966 2.7481 29.4874 2.90953 26.831 3.3358C18.3575 4.67182 13.3923 8.7887 10.3927 12.9703C9.77857 12.7718 9.12343 12.6646 8.44323 12.6646C4.94606 12.6646 2.11103 15.4996 2.11103 18.9968C2.11103 21.3496 3.39423 23.4027 5.29896 24.4944C2.05851 35.4068 0.0299045 51.6295 0 59.7545C0.0112681 61.9877 0.137343 63.6815 0.483499 64.3801C2.44528 68.648 10.153 67.7784 10.9392 64.6639C13.597 76.349 29.7181 76.8308 34.3645 68.8303C39.011 76.8308 55.1319 76.3489 57.7897 64.6638C58.5759 67.7784 66.2836 68.6479 68.2454 64.38C68.5916 63.6814 68.7176 61.9876 68.7289 59.7544C68.697 51.0801 66.3869 33.1757 62.7562 22.3577C62.7032 22.1999 62.6469 22.0297 62.5869 21.8479C62.3146 21.0237 61.9643 19.9635 61.4798 18.7662ZM11.9603 4.2215C11.9603 6.16438 10.3853 7.73939 8.4424 7.73939C6.49952 7.73939 4.92451 6.16438 4.92451 4.2215C4.92451 2.27863 6.49952 0.703613 8.4424 0.703613C10.3853 0.703613 11.9603 2.27863 11.9603 4.2215ZM37.5217 33.1801C37.9853 33.2796 38.2702 33.7487 37.9684 34.1142C37.6978 34.4419 37.3349 34.7293 36.9961 34.9977C36.8829 35.0874 36.7725 35.1749 36.669 35.2611C36.0388 35.7859 35.2508 36.0844 34.431 36.1086C33.6112 36.1329 32.807 35.8815 32.1469 35.3948C32.0501 35.3234 31.9478 35.2509 31.8429 35.1766L31.8429 35.1765C31.4774 34.9174 31.0812 34.6365 30.7819 34.308C30.4627 33.9576 30.7196 33.473 31.1765 33.3464C31.6333 33.2197 32.1983 33.4608 32.6121 33.6921C32.6657 33.7221 32.7199 33.7513 32.7733 33.7801C32.9187 33.8585 33.0583 33.9338 33.1657 34.013C33.5167 34.2719 33.9444 34.4055 34.3803 34.3926C34.8162 34.3797 35.2352 34.221 35.5703 33.9419C35.6762 33.8537 35.8172 33.7697 35.9633 33.6827L35.9634 33.6826C36.0089 33.6555 36.0549 33.6281 36.1005 33.6002C36.5048 33.3527 37.0582 33.0806 37.5217 33.1801ZM30.6462 21.6736C32.8514 22.4544 33.7759 25.1331 31.8257 26.4249C31.0556 26.935 30.2402 26.8176 29.3806 26.6938C28.8366 26.6155 28.2749 26.5346 27.6957 26.6086C27.1332 26.6805 26.5599 26.8979 25.9877 27.1148L25.9877 27.1148C25.0402 27.474 24.0958 27.8321 23.2088 27.5264C21.0136 27.0184 21.2392 23.9534 23.1782 22.6612C23.1782 22.6612 24.3485 21.6741 26.8564 21.2792C28.7374 20.9829 30.6462 21.6736 30.6462 21.6736ZM46.3795 23.0537C48.2378 24.4746 48.2939 27.3078 46.041 27.9374C45.1513 28.186 44.4115 27.8236 43.6316 27.4415C43.1381 27.1997 42.6284 26.95 42.0546 26.8424C41.4972 26.7379 40.8848 26.7684 40.2736 26.7989C39.2616 26.8494 38.2529 26.8997 37.5029 26.3361C35.5701 25.1778 36.7272 22.3306 38.9696 21.6971C38.9696 21.6971 40.3867 21.1178 42.8946 21.5131C44.7756 21.8095 46.3795 23.0537 46.3795 23.0537Z" fill="url(#paint0_linear_578_812)"/>
<defs>
<linearGradient id="paint0_linear_578_812" x1="34.3644" y1="0" x2="34.3644" y2="74.2327" gradientUnits="userSpaceOnUse">
<stop offset="0.640625" stop-color="white"/>
<stop offset="1" stop-color="#B9B9B9"/>
</linearGradient>
</defs>
</svg>
