<svg width="120" height="24" viewBox="0 0 120 24" fill="none" xmlns="http://www.w3.org/2000/svg">
<path d="M108 22C112.13 22 115.5 18.63 115.5 14.5V9.5C115.5 5.37 112.13 2 108 2C103.87 2 100.5 5.37 100.5 9.5V14.5C100.5 18.63 103.87 22 108 22Z" stroke="#DCDCDC" stroke-width="1.5" stroke-linecap="round" stroke-linejoin="round"/>
<path d="M108 11C107.17 11 106.5 10.33 106.5 9.5V7.5C106.5 6.67 107.17 6 108 6C108.82 6 109.5 6.67 109.5 7.5V9.5C109.5 10.33 108.82 11 108 11Z" stroke="#DCDCDC" stroke-width="1.5" stroke-linecap="round" stroke-linejoin="round"/>
<path d="M108 6V2" stroke="#DCDCDC" stroke-width="1.5" stroke-linecap="round" stroke-linejoin="round"/>
<path d="M4.848 17.208C3.77067 17.208 2.85333 16.9627 2.096 16.472C1.34933 15.9813 0.826667 15.3093 0.528 14.456L2.112 13.528C2.56 14.7867 3.488 15.416 4.896 15.416C5.58933 15.416 6.10667 15.2827 6.448 15.016C6.8 14.7387 6.976 14.3813 6.976 13.944C6.976 13.4853 6.78933 13.1387 6.416 12.904C6.04267 12.6587 5.38133 12.392 4.432 12.104C3.89867 11.944 3.46667 11.7947 3.136 11.656C2.80533 11.5173 2.45333 11.3253 2.08 11.08C1.71733 10.824 1.44533 10.5093 1.264 10.136C1.08267 9.76267 0.992 9.32533 0.992 8.824C0.992 7.832 1.344 7.048 2.048 6.472C2.752 5.88533 3.6 5.592 4.592 5.592C5.488 5.592 6.272 5.81067 6.944 6.248C7.616 6.68533 8.13333 7.288 8.496 8.056L6.944 8.952C6.47467 7.90667 5.69067 7.384 4.592 7.384C4.05867 7.384 3.632 7.512 3.312 7.768C2.992 8.01333 2.832 8.34933 2.832 8.776C2.832 9.192 2.992 9.52267 3.312 9.768C3.64267 10.0027 4.23467 10.2533 5.088 10.52C5.51467 10.6587 5.824 10.7653 6.016 10.84C6.21867 10.904 6.496 11.0107 6.848 11.16C7.21067 11.3093 7.48267 11.4587 7.664 11.608C7.84533 11.7573 8.03733 11.944 8.24 12.168C8.45333 12.392 8.60267 12.648 8.688 12.936C8.77333 13.224 8.816 13.5493 8.816 13.912C8.816 14.9253 8.448 15.7307 7.712 16.328C6.98667 16.9147 6.032 17.208 4.848 17.208ZM14.284 17.208C13.0787 17.208 12.0707 16.8027 11.26 15.992C10.46 15.1813 10.06 14.184 10.06 13C10.06 11.8053 10.46 10.808 11.26 10.008C12.0707 9.19733 13.0787 8.792 14.284 8.792C15.0627 8.792 15.772 8.97867 16.412 9.352C17.052 9.72533 17.532 10.2267 17.852 10.856L16.364 11.72C16.1827 11.336 15.9053 11.0373 15.532 10.824C15.1693 10.6 14.748 10.488 14.268 10.488C13.564 10.488 12.972 10.728 12.492 11.208C12.0227 11.688 11.788 12.2853 11.788 13C11.788 13.7147 12.0227 14.312 12.492 14.792C12.972 15.272 13.564 15.512 14.268 15.512C14.7373 15.512 15.1587 15.4 15.532 15.176C15.916 14.952 16.204 14.6533 16.396 14.28L17.884 15.128C17.5427 15.768 17.052 16.2747 16.412 16.648C15.772 17.0213 15.0627 17.208 14.284 17.208ZM20.9079 10.344C21.3452 9.352 22.1665 8.856 23.3719 8.856V10.728C22.7105 10.6853 22.1345 10.8453 21.6439 11.208C21.1532 11.56 20.9079 12.1467 20.9079 12.968V17H19.1799V9H20.9079V10.344ZM28.0496 17.208C26.8763 17.208 25.879 16.8027 25.0576 15.992C24.2363 15.1813 23.8256 14.184 23.8256 13C23.8256 11.816 24.2363 10.8187 25.0576 10.008C25.879 9.19733 26.8763 8.792 28.0496 8.792C29.2336 8.792 30.231 9.19733 31.0416 10.008C31.863 10.8187 32.2736 11.816 32.2736 13C32.2736 14.184 31.863 15.1813 31.0416 15.992C30.231 16.8027 29.2336 17.208 28.0496 17.208ZM26.2736 14.808C26.7536 15.288 27.3456 15.528 28.0496 15.528C28.7536 15.528 29.3456 15.288 29.8256 14.808C30.3056 14.328 30.5456 13.7253 30.5456 13C30.5456 12.2747 30.3056 11.672 29.8256 11.192C29.3456 10.712 28.7536 10.472 28.0496 10.472C27.3456 10.472 26.7536 10.712 26.2736 11.192C25.7936 11.672 25.5536 12.2747 25.5536 13C25.5536 13.7253 25.7936 14.328 26.2736 14.808ZM33.8361 17V5.32H35.5641V17H33.8361ZM37.5705 17V5.32H39.2985V17H37.5705ZM49.8169 5.8C51.3529 5.8 52.6275 6.33867 53.6409 7.416C54.6649 8.49333 55.1769 9.82133 55.1769 11.4C55.1769 12.968 54.6649 14.296 53.6409 15.384C52.6275 16.4613 51.3529 17 49.8169 17H45.4169V5.8H49.8169ZM49.8169 15.24C50.8729 15.24 51.7315 14.8773 52.3929 14.152C53.0649 13.4267 53.4009 12.5093 53.4009 11.4C53.4009 10.28 53.0649 9.36267 52.3929 8.648C51.7315 7.92267 50.8729 7.56 49.8169 7.56H47.2569V15.24H49.8169ZM60.5184 17.208C59.345 17.208 58.3477 16.8027 57.5264 15.992C56.705 15.1813 56.2944 14.184 56.2944 13C56.2944 11.816 56.705 10.8187 57.5264 10.008C58.3477 9.19733 59.345 8.792 60.5184 8.792C61.7024 8.792 62.6997 9.19733 63.5104 10.008C64.3317 10.8187 64.7424 11.816 64.7424 13C64.7424 14.184 64.3317 15.1813 63.5104 15.992C62.6997 16.8027 61.7024 17.208 60.5184 17.208ZM58.7424 14.808C59.2224 15.288 59.8144 15.528 60.5184 15.528C61.2224 15.528 61.8144 15.288 62.2944 14.808C62.7744 14.328 63.0144 13.7253 63.0144 13C63.0144 12.2747 62.7744 11.672 62.2944 11.192C61.8144 10.712 61.2224 10.472 60.5184 10.472C59.8144 10.472 59.2224 10.712 58.7424 11.192C58.2624 11.672 58.0224 12.2747 58.0224 13C58.0224 13.7253 58.2624 14.328 58.7424 14.808ZM75.2084 9H77.0324L74.5204 17H72.8244L71.1604 11.608L69.4804 17H67.7844L65.2724 9H67.0964L68.6484 14.52L70.3284 9H71.9764L73.6404 14.52L75.2084 9ZM82.5129 8.792C83.4302 8.792 84.1715 9.08533 84.7369 9.672C85.3022 10.2587 85.5849 11.064 85.5849 12.088V17H83.8569V12.264C83.8569 11.6667 83.6969 11.208 83.3769 10.888C83.0569 10.568 82.6195 10.408 82.0649 10.408C81.4569 10.408 80.9662 10.6 80.5929 10.984C80.2195 11.3573 80.0329 11.9333 80.0329 12.712V17H78.3049V9H80.0329V10.024C80.5555 9.20267 81.3822 8.792 82.5129 8.792Z" fill="#DCDCDC"/>
</svg>
