<svg width="105" height="21" viewBox="0 0 105 21" fill="none" xmlns="http://www.w3.org/2000/svg">
<path d="M0.828569 15.015C0.828569 14.4807 0.987038 14.1004 1.30398 13.874C1.62092 13.6386 1.9288 13.5209 2.22763 13.5209H3.84402C4.659 13.5209 5.27024 13.9465 5.67773 14.7977C6.12145 15.7213 7.08585 16.1831 8.57093 16.1831L13.325 16.2782C14.9188 16.2782 15.7156 15.7575 15.7156 14.7162C15.7156 14.2906 15.444 13.9238 14.9007 13.6159C14.3664 13.3081 13.6646 13.0545 12.7953 12.8553C11.926 12.647 10.9661 12.4433 9.91566 12.2441C8.86523 12.0358 7.81934 11.7777 6.77797 11.4698C5.74565 11.1619 4.79483 10.7997 3.92551 10.3832C3.0562 9.96662 2.34988 9.39613 1.80655 8.6717C1.27228 7.93821 1.00515 7.07795 1.00515 6.09091C1.00515 4.27077 1.65261 2.87172 2.94753 1.89373C4.24245 0.906694 6.47008 0.413175 9.63042 0.413175L13.0805 0.494673C14.9369 0.494673 16.6076 0.974609 18.0927 1.93448C19.5868 2.8853 20.3339 4.07608 20.3339 5.50684C20.3339 6.0411 20.1754 6.42596 19.8585 6.6614C19.5415 6.89684 19.2382 7.01456 18.9484 7.01456H17.332C16.517 7.01456 15.9058 6.58443 15.4983 5.72417C15.0546 4.80051 14.0902 4.33869 12.6051 4.33869L8.5166 4.25719C6.92285 4.25719 6.12598 4.77788 6.12598 5.81925C6.12598 6.38974 6.62855 6.85609 7.6337 7.21831C8.6479 7.58052 9.87038 7.90199 11.3011 8.18271C12.7409 8.45437 14.1853 8.78489 15.6341 9.17427C17.083 9.56365 18.31 10.2066 19.3152 11.1031C20.3294 11.9905 20.8365 13.0998 20.8365 14.4309C20.8365 16.2511 20.1845 17.6547 18.8805 18.6417C17.5856 19.6197 15.3625 20.1087 12.2112 20.1087L8.09553 20.0272C6.23917 20.0272 4.56392 19.5518 3.06978 18.6009C1.57564 17.6411 0.828569 16.4458 0.828569 15.015ZM23.3493 14.1593V1.36399C23.3493 1.1195 23.4263 0.920277 23.5803 0.766335C23.7433 0.603338 23.9425 0.521839 24.1779 0.521839H27.2205C27.465 0.521839 27.6642 0.603338 27.8182 0.766335C27.9721 0.920277 28.0491 1.1195 28.0491 1.36399V5.90075H31.8388C32.0833 5.90075 32.2825 5.97772 32.4364 6.13166C32.5904 6.2856 32.6673 6.48482 32.6673 6.72931V8.3457C32.6673 8.5902 32.5858 8.78942 32.4229 8.94336C32.2689 9.0973 32.0742 9.17427 31.8388 9.17427H28.0491V14.1593C28.0491 15.0829 28.2664 15.7983 28.7011 16.3054C29.1357 16.8034 29.7153 17.0525 30.4397 17.0525C30.6842 17.0525 31.0102 17.0253 31.4177 16.971C31.8252 16.9166 32.1195 16.8895 32.3006 16.8895H32.8032C33.0477 16.8895 33.2469 16.9664 33.4008 17.1204C33.5638 17.2743 33.6453 17.4735 33.6453 17.718V19.1714C33.6453 19.3797 33.5638 19.5608 33.4008 19.7148C33.2469 19.8687 33.0477 19.9638 32.8032 20C31.8795 20.1811 30.6752 20.2717 29.1901 20.2717C25.2963 20.2807 23.3493 18.2433 23.3493 14.1593ZM36.5521 19.022C35.3568 18.1889 34.7591 17.0117 34.7591 15.4904C34.7591 13.9691 35.3568 12.801 36.5521 11.986C37.7565 11.171 39.305 10.7635 41.1975 10.7635H45.6935C45.6935 9.70401 45.4717 8.966 45.028 8.54945C44.5843 8.1329 43.8825 7.92463 42.9226 7.92463C41.6639 7.92463 40.781 8.23251 40.2739 8.84828C39.8845 9.32821 39.3638 9.56818 38.7118 9.56818H36.6879C36.4434 9.56818 36.2397 9.49121 36.0767 9.33727C35.9228 9.17427 35.8458 8.97505 35.8458 8.73961C35.8458 6.14071 38.3134 4.84126 43.2486 4.84126C45.4038 4.84126 47.1333 5.32573 48.4373 6.29466C49.7413 7.25453 50.3933 8.74414 50.3933 10.7635V19.1714C50.3933 19.4159 50.3163 19.6151 50.1624 19.7691C50.0084 19.923 49.8092 20 49.5647 20H46.9432C46.6987 20 46.4995 19.923 46.3455 19.7691C46.1916 19.6061 46.1146 19.4069 46.1146 19.1714V18.7504C44.6839 19.7736 43.0448 20.2807 41.1975 20.2717C39.305 20.2717 37.7565 19.8551 36.5521 19.022ZM39.4725 15.4904C39.4725 15.9885 39.6626 16.396 40.043 16.7129C40.4233 17.0298 40.9621 17.1883 41.6594 17.1883C43.0539 17.1883 44.3986 16.7808 45.6935 15.9658V13.8469H41.5235C40.8896 13.8469 40.3871 14.0008 40.0158 14.3087C39.6536 14.6166 39.4725 15.0105 39.4725 15.4904ZM54.6991 19.022C53.5038 18.1889 52.9062 17.0117 52.9062 15.4904C52.9062 13.9691 53.5038 12.801 54.6991 11.986C55.9035 11.171 57.452 10.7635 59.3445 10.7635H63.8406C63.8406 9.70401 63.6187 8.966 63.175 8.54945C62.7313 8.1329 62.0295 7.92463 61.0696 7.92463C59.8109 7.92463 58.928 8.23251 58.4209 8.84828C58.0315 9.32821 57.5108 9.56818 56.8588 9.56818H54.835C54.5905 9.56818 54.3867 9.49121 54.2237 9.33727C54.0698 9.17427 53.9928 8.97505 53.9928 8.73961C53.9928 6.14071 56.4604 4.84126 61.3956 4.84126C63.5508 4.84126 65.2804 5.32573 66.5843 6.29466C67.8883 7.25453 68.5403 8.74414 68.5403 10.7635V19.1714C68.5403 19.4159 68.4633 19.6151 68.3094 19.7691C68.1554 19.923 67.9562 20 67.7117 20H65.0902C64.8457 20 64.6465 19.923 64.4925 19.7691C64.3386 19.6061 64.2616 19.4069 64.2616 19.1714V18.7504C62.8309 19.7736 61.1918 20.2807 59.3445 20.2717C57.452 20.2717 55.9035 19.8551 54.6991 19.022ZM57.6195 15.4904C57.6195 15.9885 57.8097 16.396 58.19 16.7129C58.5703 17.0298 59.1091 17.1883 59.8064 17.1883C61.2009 17.1883 62.5456 16.7808 63.8406 15.9658V13.8469H59.6705C59.0367 13.8469 58.5341 14.0008 58.1628 14.3087C57.8006 14.6166 57.6195 15.0105 57.6195 15.4904ZM71.0532 12.57C71.0532 10.0255 71.755 8.10121 73.1586 6.79723C74.5621 5.49325 76.5498 4.84126 79.1215 4.84126C81.5484 4.84126 83.4364 5.2397 84.7857 6.03658C86.1349 6.83345 86.8096 8.01065 86.8096 9.56818C86.8096 9.81268 86.7281 10.0119 86.5651 10.1658C86.4111 10.3198 86.2119 10.3968 85.9674 10.3968H83.9435C83.3278 10.3968 82.8071 10.0662 82.3815 9.40518C81.8472 8.55398 80.8738 8.12837 79.4611 8.12837C78.1662 8.12837 77.2471 8.47701 76.7037 9.17427C76.1695 9.86248 75.9023 10.9944 75.9023 12.57C75.9023 14.1276 76.1785 15.255 76.7309 15.9522C77.2923 16.6495 78.2477 16.9981 79.5969 16.9981C81.0096 16.9981 81.983 16.5725 82.5173 15.7213C82.9429 15.0512 83.4636 14.7162 84.0794 14.7162H86.1032C86.3477 14.7162 86.547 14.7977 86.7009 14.9607C86.8639 15.1146 86.9454 15.3093 86.9454 15.5447C86.9454 17.1023 86.2708 18.2795 84.9215 19.0763C83.5813 19.8732 81.6978 20.2717 79.271 20.2717C76.6177 20.2717 74.5848 19.6197 73.1721 18.3157C71.7595 17.0117 71.0532 15.0965 71.0532 12.57ZM89.173 19.1714V1.36399C89.173 1.1195 89.25 0.920277 89.4039 0.766335C89.5669 0.603338 89.7662 0.521839 90.0016 0.521839H93.0442C93.2887 0.521839 93.4879 0.603338 93.6419 0.766335C93.7958 0.920277 93.8728 1.1195 93.8728 1.36399V11.008C95.4484 11.008 96.526 10.3968 97.1056 9.17427L98.4095 6.40332C98.5906 6.01394 98.8578 5.70153 99.2109 5.46609C99.5641 5.23065 99.9444 5.11293 100.352 5.11293H102.919C103.372 5.11293 103.598 5.28951 103.598 5.64267C103.598 5.84189 103.526 6.09544 103.381 6.40332L101.629 10.0979C101.33 10.7137 100.922 11.2434 100.406 11.6871C99.8901 12.1309 99.3332 12.4161 98.7355 12.5429C99.8493 12.8779 100.814 13.6929 101.629 14.9878L103.938 18.7232C104.092 18.9858 104.173 19.2122 104.182 19.4023C104.182 19.4838 104.169 19.5608 104.142 19.6333C104.051 19.8778 103.829 20 103.476 20H100.909C100.04 20 99.3468 19.5744 98.8306 18.7232L97.1056 15.9115C96.363 14.7071 95.2854 14.1049 93.8728 14.1049V19.1714C93.8728 19.4159 93.7913 19.6151 93.6283 19.7691C93.4743 19.923 93.2796 20 93.0442 20H90.0016C89.7571 20 89.5579 19.923 89.4039 19.7691C89.25 19.6151 89.173 19.4159 89.173 19.1714Z" fill="#E6E6E6"/>
</svg>
